<svg xmlns="http://www.w3.org/2000/svg" xmlns:xlink="http://www.w3.org/1999/xlink" width="500" zoomAndPan="magnify" viewBox="0 0 375 374.999991" height="500" preserveAspectRatio="xMidYMid meet" version="1.0"><path fill="#ffffff" d="M 294.433594 5.859375 L 314.574219 5.859375 L 317.429688 8.203125 C 319.042969 9.519531 320.726562 11.71875 321.3125 12.964844 C 321.824219 14.28125 322.265625 17.652344 322.265625 25.632812 L 327.613281 28.492188 C 330.46875 30.027344 335.375 33.25 338.378906 35.667969 C 341.382812 38.085938 345.484375 41.820312 347.460938 44.019531 C 349.4375 46.214844 352.441406 49.949219 354.125 52.367188 C 355.882812 54.785156 358.59375 59.398438 360.203125 62.621094 C 361.816406 65.84375 364.011719 71.117188 365.113281 74.339844 C 366.210938 77.5625 367.601562 83.496094 368.1875 87.523438 C 368.921875 92.429688 369.140625 97.558594 368.921875 102.90625 C 368.699219 107.371094 368.042969 113.304688 367.382812 116.089844 C 366.796875 118.871094 365.550781 123.339844 364.746094 125.976562 C 363.867188 128.613281 361.523438 133.886719 359.546875 137.695312 C 357.496094 141.503906 353.613281 147.4375 350.902344 150.878906 C 348.191406 154.320312 343.503906 159.15625 340.503906 161.644531 C 337.5 164.136719 332.152344 167.945312 322.191406 173.949219 L 322.265625 183.472656 L 327.90625 186.402344 C 331.421875 188.230469 335.667969 191.308594 338.964844 194.457031 C 341.96875 197.3125 345.921875 201.855469 347.828125 204.710938 C 349.730469 207.566406 352.148438 212.109375 353.246094 214.964844 C 354.34375 217.820312 355.738281 222.65625 356.324219 225.730469 C 357.128906 230.054688 357.421875 236.863281 357.421875 253.199219 C 357.421875 268.871094 357.128906 276.855469 356.324219 281.617188 C 355.738281 285.203125 354.492188 290.476562 353.539062 293.335938 C 352.585938 296.191406 350.464844 301.097656 348.851562 304.320312 C 347.167969 307.542969 344.382812 312.15625 342.554688 314.574219 C 340.722656 316.992188 336.695312 321.460938 333.542969 324.460938 C 330.324219 327.539062 326.292969 331.054688 324.464844 332.300781 C 322.632812 333.542969 318.675781 335.816406 315.675781 337.28125 C 312.671875 338.816406 307.910156 340.867188 305.054688 341.820312 C 302.199219 342.773438 296.921875 344.019531 293.335938 344.605469 C 287.988281 345.484375 276.855469 345.703125 181.640625 345.703125 L 181.640625 352.660156 C 181.640625 356.761719 181.273438 360.570312 180.6875 362.035156 C 180.101562 363.28125 178.417969 365.476562 173.949219 369.140625 L 71.046875 369.140625 L 66.796875 367.015625 C 64.527344 365.84375 61.671875 364.085938 60.425781 363.132812 C 59.179688 362.109375 57.128906 359.179688 55.738281 356.617188 C 53.6875 352.660156 53.175781 350.828125 52.734375 344.96875 C 52.296875 339.402344 49.953125 329.738281 40.941406 296.632812 C 31.347656 261.109375 29.808594 254.441406 29.738281 249.757812 C 29.738281 245.214844 30.03125 243.605469 31.640625 240.601562 C 32.667969 238.621094 34.863281 235.691406 36.546875 234.226562 C 38.160156 232.691406 39.917969 231.445312 40.285156 231.445312 C 40.722656 231.445312 41.089844 227.636719 41.382812 212.183594 L 48.558594 210.277344 C 53.394531 209.035156 56.105469 207.863281 56.835938 206.910156 C 57.421875 206.105469 57.863281 205.003906 57.863281 204.566406 C 57.863281 204.050781 56.175781 200.828125 54.199219 197.386719 C 52.148438 193.945312 50.539062 190.941406 50.539062 190.648438 C 50.539062 190.285156 55.519531 185.011719 61.597656 178.929688 C 67.675781 172.777344 72.949219 167.726562 73.316406 167.726562 C 73.683594 167.726562 76.757812 169.410156 80.199219 171.386719 C 83.644531 173.4375 86.867188 175.050781 87.378906 175.050781 C 87.816406 175.050781 88.917969 174.609375 89.722656 174.023438 C 90.675781 173.292969 91.847656 170.582031 94.996094 158.570312 L 111.328125 158.203125 L 111.328125 146.484375 L 35.523438 146.117188 L 30.761719 143.773438 C 27.539062 142.234375 24.757812 140.113281 22.121094 137.183594 C 19.628906 134.546875 17.652344 131.398438 16.773438 128.90625 C 15.820312 126.488281 13.402344 111.914062 10.546875 91.917969 C 6.886719 66.796875 5.859375 57.863281 6.152344 54.199219 C 6.445312 51.050781 7.324219 47.902344 8.714844 45.042969 C 9.960938 42.480469 12.453125 39.183594 14.574219 37.207031 C 16.625 35.230469 20.214844 32.8125 26.734375 29.664062 L 204.710938 29.371094 L 214.160156 32.59375 L 218.261719 28.710938 C 220.824219 26.222656 224.488281 23.730469 228.148438 21.972656 C 231.371094 20.433594 235.988281 18.824219 238.402344 18.382812 C 240.894531 17.945312 252.320312 17.578125 287.109375 17.578125 L 287.550781 14.867188 C 287.84375 12.890625 288.867188 11.207031 291.210938 9.007812 Z M 298.828125 64.820312 L 310.546875 64.820312 L 310.546875 17.578125 L 298.828125 17.578125 Z M 231.882812 33.179688 C 229.539062 34.421875 226.246094 36.988281 224.558594 38.816406 C 222.949219 40.574219 220.679688 44.089844 219.582031 46.507812 C 218.40625 49 217.308594 52.878906 217.015625 55.664062 C 216.503906 60.132812 216.652344 60.496094 218.480469 62.402344 L 220.460938 64.453125 L 287.109375 64.453125 L 287.109375 29.296875 C 252.171875 29.371094 240.746094 29.734375 239.136719 30.101562 C 237.523438 30.46875 234.230469 31.859375 231.886719 33.179688 Z M 322.265625 68.480469 C 328.050781 71.851562 331.640625 74.707031 333.835938 76.976562 C 336.109375 79.246094 339.039062 82.984375 340.28125 85.398438 C 341.527344 87.742188 343.210938 91.480469 343.945312 93.75 C 344.898438 96.605469 345.261719 99.902344 345.261719 105.46875 C 345.261719 111.035156 344.898438 114.183594 343.945312 117.1875 C 343.140625 119.382812 341.820312 122.679688 340.867188 124.511719 C 339.917969 126.269531 337.9375 129.34375 336.402344 131.25 C 334.863281 133.082031 331.640625 136.15625 329.222656 137.988281 C 326.804688 139.890625 324.242188 141.503906 323.511719 141.722656 C 322.410156 142.015625 322.265625 143.113281 322.265625 151.246094 L 322.265625 160.398438 C 328.785156 156.003906 332.59375 152.929688 335.007812 150.730469 C 337.351562 148.609375 340.722656 145.019531 342.40625 142.820312 C 344.089844 140.550781 346.582031 136.960938 347.898438 134.765625 C 349.21875 132.496094 351.195312 128.394531 352.292969 125.609375 C 353.464844 122.753906 354.929688 117.992188 355.664062 114.988281 C 356.617188 110.960938 356.980469 106.640625 356.980469 99.242188 C 356.910156 92.210938 356.542969 87.378906 355.664062 84.007812 C 355.003906 81.296875 353.464844 76.539062 352.292969 73.386719 C 351.121094 70.238281 348.414062 65.113281 346.363281 61.890625 C 344.238281 58.667969 340.355469 53.757812 337.71875 50.976562 C 335.007812 48.191406 330.90625 44.53125 328.492188 42.847656 C 326.074219 41.160156 323.730469 39.476562 323.21875 39.183594 C 322.632812 38.816406 322.410156 42.554688 322.339844 53.539062 Z M 26.660156 42.992188 C 24.390625 44.164062 22.117188 46.214844 20.652344 48.265625 C 19.335938 50.171875 18.015625 52.808594 17.796875 54.199219 C 17.503906 55.808594 19.042969 69.066406 21.898438 88.988281 C 24.390625 106.714844 26.804688 122.386719 27.246094 123.777344 C 27.683594 125.242188 29.222656 127.660156 30.6875 129.199219 C 32.078125 130.738281 34.128906 132.421875 35.15625 132.933594 C 36.109375 133.445312 37.867188 134.03125 38.964844 134.324219 L 41.015625 134.765625 C 40.941406 127.734375 41.308594 123.632812 41.746094 121.214844 C 42.1875 118.796875 43.796875 114.183594 45.410156 110.960938 C 47.09375 107.445312 49.65625 103.636719 51.929688 101.292969 C 53.980469 99.167969 57.496094 96.238281 59.839844 94.703125 C 62.183594 93.238281 64.160156 91.992188 64.234375 91.992188 C 64.378906 91.992188 63.648438 90.601562 62.546875 88.988281 C 61.523438 87.378906 60.132812 84.300781 59.546875 82.03125 C 58.738281 79.320312 58.519531 76.683594 58.8125 73.828125 C 59.105469 71.484375 60.058594 68.042969 60.9375 66.136719 C 61.816406 64.234375 63.867188 61.304688 65.476562 59.691406 C 67.089844 58.082031 70.09375 55.957031 72.144531 55.003906 C 75.074219 53.539062 76.902344 53.175781 82.03125 53.175781 C 87.230469 53.175781 88.769531 53.46875 91.917969 55.078125 C 93.894531 56.105469 96.53125 57.789062 97.777344 58.8125 C 98.949219 59.765625 101 62.546875 102.320312 64.890625 C 103.785156 67.75 104.808594 70.824219 105.101562 73.609375 C 105.46875 76.757812 105.25 79.246094 104.445312 82.03125 C 103.855469 84.300781 102.464844 87.378906 101.441406 88.988281 C 100.339844 90.601562 99.609375 91.992188 99.753906 91.992188 C 99.828125 92.066406 101.441406 92.945312 103.269531 93.96875 C 105.027344 95.066406 108.324219 97.632812 110.449219 99.753906 C 112.644531 101.953125 114.917969 104.589844 115.574219 105.6875 C 116.234375 106.785156 116.96875 107.738281 117.1875 107.738281 C 117.332031 107.738281 118.066406 106.785156 118.726562 105.6875 C 119.382812 104.589844 121.289062 102.246094 122.898438 100.5625 C 124.585938 98.875 127.808594 96.238281 130.152344 94.703125 C 132.496094 93.238281 134.472656 91.992188 134.546875 91.992188 C 134.691406 91.992188 133.960938 90.601562 132.859375 88.988281 C 131.835938 87.378906 130.445312 84.300781 129.859375 82.03125 C 129.050781 79.320312 128.832031 76.683594 129.125 73.828125 C 129.417969 71.484375 130.371094 68.042969 131.25 66.136719 C 132.128906 64.234375 134.179688 61.304688 135.789062 59.691406 C 137.402344 58.082031 140.40625 55.957031 142.457031 55.003906 C 145.386719 53.539062 147.214844 53.175781 152.34375 53.175781 C 157.542969 53.175781 159.082031 53.46875 162.230469 55.078125 C 164.207031 56.105469 166.84375 57.789062 168.089844 58.8125 C 169.261719 59.765625 171.3125 62.546875 172.632812 64.890625 C 174.097656 67.75 175.121094 70.824219 175.414062 73.609375 C 175.78125 76.757812 175.5625 79.246094 174.753906 82.03125 C 174.167969 84.300781 172.777344 87.378906 171.753906 88.988281 C 170.652344 90.601562 169.921875 91.992188 170.066406 91.992188 C 170.140625 92.066406 171.753906 92.945312 173.582031 93.96875 C 175.339844 94.996094 178.785156 97.777344 181.128906 100.121094 C 183.542969 102.464844 186.328125 105.90625 187.351562 107.664062 C 188.378906 109.496094 190.0625 113.160156 191.015625 115.722656 C 192.113281 118.796875 192.917969 123.046875 193.210938 127.660156 L 193.726562 134.765625 C 196.507812 134.105469 198.707031 133.152344 200.316406 132.273438 C 201.929688 131.324219 203.757812 129.710938 204.492188 128.6875 C 205.445312 127.222656 205.664062 125.976562 205.296875 123.632812 C 205.078125 121.875 205.222656 118.871094 205.738281 116.820312 C 206.25 114.625 208.667969 110.15625 211.671875 105.46875 L 216.722656 97.777344 L 216.796875 75.074219 C 213.207031 73.390625 210.9375 71.558594 209.472656 69.945312 C 208.082031 68.261719 206.46875 65.625 205.957031 64.085938 C 205.445312 62.476562 205.078125 59.691406 205.078125 57.863281 C 205.078125 56.105469 205.519531 52.589844 206.105469 50.171875 C 206.617188 47.753906 207.277344 45.042969 207.570312 44.164062 C 207.933594 42.773438 207.570312 42.40625 205.222656 41.75 C 203.46875 41.308594 171.09375 41.015625 116.457031 41.015625 L 30.394531 41.015625 Z M 72.65625 68.773438 C 71.703125 70.09375 70.75 72.144531 70.53125 73.460938 C 70.238281 74.78125 70.3125 77.195312 70.605469 78.808594 C 70.945312 80.761719 71.996094 82.617188 73.753906 84.375 C 75.292969 85.914062 77.5625 87.304688 79.027344 87.597656 C 80.417969 87.890625 82.910156 87.890625 84.519531 87.597656 C 86.472656 87.253906 88.328125 86.179688 90.085938 84.375 C 91.625 82.835938 93.015625 80.640625 93.308594 79.175781 C 93.601562 77.78125 93.601562 75.367188 93.382812 73.828125 C 93.164062 72.363281 91.992188 70.09375 90.894531 68.773438 C 89.792969 67.527344 87.816406 65.992188 86.5 65.476562 C 85.179688 64.964844 83.054688 64.527344 81.738281 64.527344 C 80.417969 64.527344 78.222656 65.039062 76.902344 65.550781 C 75.511719 66.0625 73.609375 67.527344 72.65625 68.773438 Z M 142.96875 68.773438 C 142.015625 70.09375 141.0625 72.144531 140.84375 73.460938 C 140.550781 74.78125 140.625 77.195312 140.917969 78.808594 C 141.257812 80.761719 142.308594 82.617188 144.066406 84.375 C 145.605469 85.914062 147.875 87.304688 149.339844 87.597656 C 150.730469 87.890625 153.222656 87.890625 154.835938 87.597656 C 156.789062 87.253906 158.644531 86.179688 160.402344 84.375 C 161.9375 82.835938 163.332031 80.640625 163.625 79.175781 C 163.914062 77.78125 163.914062 75.367188 163.695312 73.828125 C 163.476562 72.363281 162.304688 70.09375 161.207031 68.773438 C 160.109375 67.527344 158.128906 65.992188 156.8125 65.476562 C 155.492188 64.964844 153.371094 64.527344 152.050781 64.527344 C 150.734375 64.527344 148.535156 65.039062 147.21875 65.550781 C 145.824219 66.0625 143.921875 67.527344 142.96875 68.773438 Z M 228.441406 87.378906 C 228.441406 94.996094 228.148438 99.535156 227.488281 101.511719 C 226.90625 103.125 224.265625 107.738281 221.558594 111.765625 C 218.921875 115.796875 216.722656 119.824219 216.722656 120.703125 C 216.722656 121.65625 217.164062 123.265625 217.675781 124.363281 C 218.261719 125.464844 219.652344 126.78125 220.824219 127.292969 C 221.996094 127.808594 223.828125 129.125 224.925781 130.222656 C 225.953125 131.324219 227.195312 133.152344 227.636719 134.253906 C 228.074219 135.351562 228.441406 139.671875 228.441406 143.773438 C 228.367188 148.902344 228.808594 152.5625 229.6875 155.347656 C 230.640625 158.347656 231.957031 160.398438 234.960938 163.402344 C 238.039062 166.480469 240.089844 167.796875 243.089844 168.75 C 245.289062 169.410156 247.925781 169.996094 248.949219 169.996094 C 249.976562 169.996094 258.398438 168.96875 267.773438 167.652344 L 284.839844 165.234375 C 286.085938 161.792969 286.597656 156.738281 286.816406 151.683594 L 287.109375 142.527344 C 281.25 139.085938 277.734375 136.304688 275.464844 134.105469 C 273.265625 131.910156 270.628906 128.613281 269.53125 126.78125 C 268.507812 124.949219 266.894531 121.433594 266.015625 118.871094 C 265.0625 116.382812 264.113281 111.914062 263.820312 108.984375 C 263.597656 105.90625 263.746094 101.585938 264.257812 98.582031 C 264.769531 95.726562 266.234375 91.113281 267.554688 88.328125 C 268.945312 85.472656 271.214844 81.8125 272.679688 80.054688 C 274.144531 78.367188 275.316406 76.832031 275.316406 76.609375 C 275.316406 76.390625 264.769531 76.246094 251.878906 76.246094 L 228.441406 76.246094 Z M 290.40625 80.054688 C 287.988281 81.371094 284.765625 83.933594 283.082031 85.691406 C 281.46875 87.523438 279.125 91.1875 277.878906 93.75 C 275.902344 98.070312 275.683594 99.242188 275.683594 105.542969 C 275.683594 112.132812 275.828125 112.867188 278.320312 117.992188 C 280.078125 121.507812 282.273438 124.585938 284.546875 126.707031 C 286.523438 128.464844 290.257812 130.957031 292.894531 132.203125 C 297.144531 134.179688 298.386719 134.398438 304.613281 134.398438 C 310.839844 134.398438 312.011719 134.179688 316.332031 132.203125 C 318.894531 130.957031 322.632812 128.464844 324.609375 126.707031 C 326.878906 124.585938 329.078125 121.507812 330.835938 117.992188 C 333.324219 112.867188 333.542969 112.132812 333.542969 105.46875 C 333.542969 98.875 333.324219 98.144531 330.835938 93.015625 C 329.078125 89.5 326.878906 86.425781 324.609375 84.300781 C 322.632812 82.46875 318.894531 80.054688 316.332031 78.882812 C 312.671875 77.195312 310.253906 76.609375 306.078125 76.464844 C 303.003906 76.316406 299.265625 76.609375 297.65625 76.976562 C 296.042969 77.417969 292.75 78.808594 290.40625 80.054688 Z M 67.75 103.492188 C 65.332031 104.808594 62.109375 107.371094 60.425781 109.128906 C 58.8125 110.960938 56.46875 114.625 55.296875 117.1875 C 53.613281 120.847656 53.027344 123.414062 52.660156 128.394531 L 52.296875 134.765625 L 111.621094 134.765625 C 110.667969 122.3125 110.15625 120.410156 108.03125 116.089844 C 106.492188 112.9375 104.148438 109.714844 101.953125 107.738281 C 99.976562 105.90625 96.238281 103.492188 93.675781 102.320312 C 90.015625 100.632812 87.597656 100.046875 83.421875 99.902344 C 80.347656 99.757812 76.609375 100.046875 75 100.414062 C 73.386719 100.855469 70.09375 102.246094 67.75 103.492188 Z M 138.0625 103.492188 C 135.644531 104.808594 132.421875 107.371094 130.738281 109.128906 C 129.125 110.960938 126.78125 114.625 125.535156 117.1875 L 123.339844 121.949219 L 122.972656 156.738281 C 126.488281 158.570312 127.660156 157.835938 144.359375 146.703125 L 162.15625 134.765625 L 181.933594 134.765625 C 180.980469 122.3125 180.46875 120.410156 178.34375 116.089844 C 176.804688 112.9375 174.460938 109.714844 172.265625 107.738281 C 170.289062 105.90625 166.550781 103.492188 163.988281 102.320312 C 160.328125 100.632812 157.910156 100.046875 153.734375 99.902344 C 150.660156 99.757812 146.921875 100.046875 145.3125 100.414062 C 143.699219 100.855469 140.40625 102.246094 138.0625 103.492188 Z M 206.101562 142.527344 C 204.492188 143.480469 201.34375 144.800781 199.144531 145.386719 C 196.140625 146.191406 191.160156 146.484375 180.46875 146.484375 L 165.820312 146.484375 C 139.378906 164.136719 131.46875 169.1875 131.175781 169.261719 C 130.882812 169.261719 130.808594 170.140625 131.03125 171.167969 C 131.175781 172.191406 132.054688 173.511719 132.859375 174.097656 C 133.667969 174.609375 134.691406 175.050781 135.203125 175.050781 C 135.71875 175.050781 138.941406 173.4375 142.382812 171.386719 C 145.75 169.410156 148.828125 167.726562 149.121094 167.726562 C 149.414062 167.726562 154.6875 172.777344 160.839844 178.929688 C 166.992188 185.082031 172.046875 190.355469 172.046875 190.648438 C 172.046875 190.941406 170.359375 194.019531 168.382812 197.386719 C 166.332031 200.832031 164.722656 204.054688 164.648438 204.566406 C 164.648438 205.078125 165.160156 206.105469 165.746094 206.910156 C 166.429688 207.886719 169.164062 209.007812 173.949219 210.277344 L 181.199219 212.183594 L 181.199219 244.921875 C 169.1875 248.070312 166.40625 249.171875 165.746094 250.121094 C 165.160156 250.929688 164.648438 252.027344 164.648438 252.539062 C 164.722656 253.050781 166.332031 256.273438 168.382812 259.644531 C 170.359375 263.085938 172.046875 266.164062 172.046875 266.457031 C 172.046875 266.75 166.992188 272.023438 160.839844 278.175781 C 154.6875 284.328125 149.414062 289.308594 149.121094 289.308594 C 148.828125 289.308594 145.75 287.695312 142.382812 285.644531 C 138.941406 283.667969 135.71875 281.984375 135.203125 281.984375 C 134.691406 281.984375 133.667969 282.496094 132.859375 283.007812 C 131.882812 283.742188 130.761719 286.5 129.492188 291.285156 L 127.585938 298.460938 L 94.847656 298.460938 C 91.332031 285.132812 90.601562 283.667969 89.0625 282.714844 C 87.304688 281.691406 86.9375 281.761719 84.007812 283.375 C 82.25 284.324219 80.417969 285.496094 79.980469 285.9375 C 79.320312 286.597656 80.492188 291.722656 84.886719 307.617188 C 88.109375 319.117188 91.039062 329.738281 91.480469 331.273438 L 92.210938 333.984375 C 125.316406 333.984375 129.566406 333.835938 129.492188 333.105469 C 129.492188 332.59375 130.664062 329.882812 132.054688 327.027344 C 133.59375 323.878906 135.863281 320.726562 138.0625 318.675781 C 140.039062 316.847656 143.773438 314.429688 146.410156 313.183594 C 150.730469 311.132812 151.976562 310.914062 161.207031 310.621094 L 171.238281 310.179688 C 172.703125 306.886719 174.460938 304.761719 176.074219 303.296875 C 177.757812 301.832031 180.394531 300.292969 181.933594 299.78125 C 184.058594 299.121094 192.625 298.902344 212.476562 298.828125 L 240.160156 298.828125 C 240.160156 288.941406 240.453125 283.226562 240.894531 279.785156 C 241.332031 276.417969 242.210938 271.144531 242.796875 268.066406 C 243.382812 265.0625 245.066406 259.132812 246.460938 254.882812 C 247.851562 250.707031 250.414062 244.261719 252.171875 240.601562 C 253.929688 237.011719 257.226562 231.226562 259.496094 227.785156 L 263.523438 221.558594 C 263.597656 202.953125 263.453125 202.222656 262.28125 202.515625 C 261.546875 202.734375 258.691406 203.394531 255.90625 203.980469 C 252.027344 204.785156 245.507812 205.078125 229.539062 205.078125 C 215.113281 205.078125 207.347656 204.785156 205.371094 204.199219 C 203.539062 203.6875 200.976562 201.855469 198.707031 199.660156 C 196.507812 197.386719 194.675781 194.824219 194.164062 192.992188 C 193.652344 191.382812 193.285156 188.964844 193.285156 187.5 C 193.285156 186.109375 193.652344 183.617188 194.164062 182.007812 C 194.675781 180.25 196.507812 177.6875 198.707031 175.414062 C 200.976562 173.144531 203.539062 171.386719 205.371094 170.875 C 206.980469 170.363281 211.816406 169.996094 216.136719 169.921875 C 220.457031 169.921875 224.046875 169.777344 224.046875 169.554688 C 224.046875 169.410156 223.167969 167.945312 222.214844 166.480469 C 221.191406 164.941406 219.652344 161.9375 218.773438 159.667969 C 217.601562 156.664062 217.164062 153.515625 216.871094 147.21875 C 216.648438 140.550781 216.285156 138.648438 215.332031 137.914062 C 214.671875 137.402344 213.792969 136.964844 213.355469 136.964844 C 212.914062 136.964844 211.742188 137.84375 210.789062 138.867188 C 209.839844 139.964844 207.714844 141.578125 206.101562 142.53125 Z M 298.535156 154.175781 C 298.242188 159.886719 297.582031 163.988281 296.265625 168.089844 C 295.238281 171.3125 293.113281 176.074219 291.578125 178.710938 C 290.113281 181.273438 286.667969 185.667969 284.105469 188.453125 C 281.46875 191.234375 278.394531 194.089844 277.292969 194.75 C 275.316406 195.921875 275.242188 196.140625 275.242188 202.148438 L 275.242188 208.375 C 282.347656 201.5625 287.253906 197.605469 290.699219 195.261719 C 294.066406 192.847656 299.925781 189.257812 303.660156 187.351562 L 310.472656 183.835938 L 310.472656 146.117188 L 298.902344 146.117188 Z M 103.269531 172.703125 C 102.90625 174.167969 102.097656 177.027344 101.585938 179.003906 C 101.074219 180.980469 100.121094 182.738281 99.535156 182.957031 C 98.949219 183.179688 95.726562 184.421875 92.429688 185.816406 L 86.351562 188.230469 L 74.707031 182.007812 L 64.746094 191.96875 L 70.972656 203.613281 C 67.164062 212.988281 65.84375 216.210938 65.699219 216.796875 C 65.476562 217.457031 63.71875 218.335938 61.742188 218.847656 C 59.765625 219.359375 56.910156 220.164062 55.445312 220.53125 C 52.734375 221.191406 52.660156 221.265625 52.660156 224.851562 L 52.660156 228.515625 L 62.914062 228.515625 C 64.011719 232.25 66.871094 242.359375 69.945312 253.417969 C 72.949219 264.550781 75.660156 273.777344 75.878906 273.925781 C 76.023438 274.144531 78.515625 273.046875 81.296875 271.582031 L 86.351562 268.796875 C 95.726562 272.679688 98.949219 273.925781 99.535156 274.144531 C 100.121094 274.292969 101.074219 276.121094 101.585938 278.101562 C 102.097656 280.003906 102.832031 282.859375 103.269531 284.398438 L 103.929688 287.109375 L 118.578125 287.109375 C 120.191406 281.175781 120.921875 278.320312 121.289062 276.929688 C 121.800781 274.804688 122.386719 274.292969 125.535156 273.191406 C 127.585938 272.535156 130.664062 271.214844 132.496094 270.261719 L 135.789062 268.652344 L 147.875 275.023438 L 157.761719 265.136719 L 151.316406 253.050781 C 153.953125 247.996094 155.273438 244.847656 155.933594 242.796875 C 157.03125 239.648438 157.542969 239.0625 159.667969 238.550781 C 161.058594 238.257812 163.914062 237.449219 166.039062 236.9375 L 169.847656 235.839844 L 169.847656 221.191406 C 165.015625 220.019531 162.15625 219.214844 160.328125 218.699219 C 157.324219 217.820312 156.957031 217.457031 155.859375 214.160156 C 155.199219 212.183594 153.953125 209.105469 153.003906 207.273438 L 151.316406 203.980469 L 157.761719 191.96875 L 147.875 182.007812 L 135.789062 188.453125 C 130.664062 185.886719 127.585938 184.570312 125.535156 183.835938 C 122.386719 182.8125 121.800781 182.300781 121.289062 180.101562 C 120.921875 178.785156 120.191406 175.925781 119.675781 173.804688 L 118.578125 169.921875 L 104.003906 169.921875 Z M 250.046875 181.640625 C 248.070312 181.714844 244.628906 181.273438 242.578125 180.761719 L 238.695312 179.882812 C 239.574219 183.25 239.792969 186.402344 239.792969 188.964844 L 239.792969 193.578125 C 252.246094 192.917969 255.90625 192.332031 259.203125 191.089844 C 261.839844 190.136719 265.429688 188.453125 267.261719 187.425781 C 269.089844 186.328125 271.949219 184.203125 273.632812 182.664062 C 275.316406 181.128906 276.707031 179.441406 276.78125 178.929688 C 276.78125 178.417969 276.5625 178.050781 276.269531 178.125 C 275.902344 178.199219 270.777344 179.003906 264.695312 179.882812 C 258.691406 180.835938 252.097656 181.640625 250.046875 181.640625 Z M 205.078125 187.5 C 205.003906 188.964844 205.664062 190.429688 206.835938 191.601562 C 208.59375 193.285156 209.105469 193.433594 216.796875 193.433594 C 224.414062 193.433594 224.925781 193.285156 226.683594 191.601562 C 227.78125 190.429688 228.441406 188.890625 228.441406 187.574219 C 228.441406 186.179688 227.78125 184.644531 226.609375 183.542969 C 224.851562 181.785156 224.339844 181.714844 216.722656 181.714844 C 209.105469 181.714844 208.519531 181.785156 206.835938 183.472656 C 205.808594 184.570312 205.078125 186.179688 205.078125 187.5 Z M 299.488281 203.320312 C 296.851562 205.078125 292.164062 208.667969 289.085938 211.304688 C 285.9375 213.941406 281.175781 218.699219 278.539062 221.777344 C 275.902344 224.925781 271.949219 230.125 269.824219 233.347656 C 267.625 236.570312 264.402344 242.359375 262.574219 246.167969 C 260.816406 249.976562 258.472656 255.613281 257.445312 258.617188 C 256.492188 261.621094 254.957031 267.554688 254.078125 271.800781 C 253.199219 276.050781 252.246094 283.886719 252.027344 289.304688 L 251.511719 299.046875 C 276.414062 298.460938 278.394531 298.167969 282.640625 296.628906 C 285.277344 295.605469 288.867188 293.992188 290.699219 292.894531 C 292.527344 291.871094 295.898438 289.085938 298.316406 286.742188 C 300.660156 284.324219 303.441406 280.957031 304.539062 279.125 C 305.566406 277.292969 307.25 273.707031 308.203125 271.070312 C 309.8125 266.820312 310.035156 264.917969 310.253906 253.269531 L 310.472656 240.308594 L 322.191406 240.308594 C 321.679688 266.453125 321.460938 268.285156 319.773438 273.632812 C 318.675781 276.855469 316.625 281.617188 315.085938 284.253906 C 313.550781 286.890625 309.667969 291.648438 306.445312 294.871094 C 303.222656 298.09375 298.460938 301.976562 295.824219 303.515625 C 293.1875 304.980469 288.425781 307.175781 285.203125 308.203125 L 279.34375 310.179688 L 184.351562 310.984375 C 181.714844 314.429688 181.492188 315.820312 181.566406 324.316406 L 181.566406 334.058594 C 290.769531 333.617188 291.871094 333.617188 297.289062 332.078125 C 300.292969 331.199219 304.761719 329.589844 307.175781 328.492188 C 309.59375 327.464844 313.914062 325.046875 316.699219 323.21875 C 319.554688 321.386719 324.023438 317.722656 326.660156 315.085938 C 329.296875 312.449219 333.03125 307.910156 334.863281 305.125 C 336.695312 302.269531 339.039062 298.023438 340.136719 295.605469 C 341.160156 293.1875 342.773438 288.574219 343.652344 285.351562 C 345.191406 279.859375 345.261719 277.953125 345.261719 253.855469 C 345.261719 229.394531 345.191406 228.003906 343.652344 223.09375 C 342.773438 220.238281 340.796875 215.84375 339.257812 213.28125 C 337.71875 210.71875 334.644531 206.761719 332.445312 204.492188 C 330.25 202.222656 326.441406 199.144531 324.023438 197.679688 C 321.605469 196.140625 318.675781 194.75 317.429688 194.53125 C 315.746094 194.238281 313.988281 194.824219 309.742188 197.167969 C 306.738281 198.777344 302.125 201.5625 299.488281 203.320312 Z M 42.332031 245.433594 C 41.601562 246.824219 40.941406 248.730469 40.941406 249.609375 C 40.941406 250.5625 45.554688 268.652344 51.269531 289.890625 C 56.910156 311.132812 61.816406 329.808594 62.253906 331.273438 L 62.914062 334.058594 C 76.464844 334.058594 79.761719 333.765625 79.761719 333.324219 C 79.761719 332.886719 74.121094 312.378906 67.308594 287.695312 C 60.425781 263.011719 54.636719 242.285156 54.492188 241.550781 C 54.199219 240.671875 53.394531 240.308594 51.414062 240.308594 C 49.878906 240.308594 47.535156 240.894531 46.140625 241.550781 C 44.824219 242.285156 43.066406 244.042969 42.332031 245.433594 Z M 147.507812 326.148438 C 146.117188 327.246094 144.285156 329.222656 143.480469 330.542969 C 142.675781 331.859375 142.015625 333.179688 142.015625 333.472656 C 142.015625 333.765625 148.316406 334.058594 155.933594 334.058594 L 169.847656 334.058594 L 169.847656 322.339844 C 158.203125 322.410156 153.734375 322.851562 152.488281 323.289062 C 151.171875 323.804688 148.902344 325.046875 147.507812 326.148438 Z M 64.671875 348.121094 C 64.890625 349.4375 65.769531 351.34375 66.503906 352.367188 C 67.234375 353.394531 68.773438 354.859375 69.800781 355.664062 C 71.777344 357.054688 73.09375 357.128906 120.847656 357.273438 L 169.847656 357.496094 L 169.847656 345.777344 L 64.160156 345.777344 Z M 304.246094 87.964844 C 305.859375 87.964844 308.863281 88.476562 310.839844 89.207031 C 313.230469 90.039062 315.429688 91.578125 317.429688 93.824219 C 319.042969 95.652344 320.800781 98.4375 321.3125 100.046875 C 321.824219 101.660156 322.191406 103.492188 322.191406 104.222656 C 322.191406 105.320312 321.460938 105.46875 316.332031 105.46875 C 311.644531 105.46875 310.472656 105.25 310.472656 104.371094 C 310.472656 103.785156 309.667969 102.464844 308.640625 101.441406 C 307.542969 100.339844 306.003906 99.609375 304.613281 99.609375 C 303.222656 99.609375 301.683594 100.339844 300.585938 101.441406 C 299.488281 102.613281 298.753906 104.148438 298.753906 105.46875 C 298.753906 106.859375 299.488281 108.398438 300.585938 109.496094 C 301.609375 110.523438 302.929688 111.328125 303.515625 111.328125 C 304.394531 111.328125 304.613281 112.5 304.613281 117.1875 C 304.613281 122.3125 304.46875 123.046875 303.367188 123.046875 C 302.636719 123.046875 300.730469 122.679688 299.121094 122.167969 C 297.363281 121.65625 294.800781 119.824219 292.527344 117.625 C 290.257812 115.355469 288.5 112.792969 287.988281 110.960938 C 287.476562 109.351562 287.109375 106.933594 287.109375 105.46875 C 287.109375 104.078125 287.476562 101.585938 287.988281 99.976562 C 288.5 98.21875 290.257812 95.652344 292.527344 93.382812 C 294.578125 91.332031 297.363281 89.28125 298.753906 88.84375 C 300.21875 88.402344 302.636719 88.035156 304.246094 87.964844 Z M 110.886719 193.433594 C 113.304688 193.433594 117.261719 193.871094 119.675781 194.53125 C 122.09375 195.191406 126.050781 196.726562 128.394531 197.972656 C 130.738281 199.292969 134.398438 202.148438 136.523438 204.34375 C 138.648438 206.617188 141.210938 210.132812 142.308594 212.253906 C 143.335938 214.378906 144.726562 217.96875 145.3125 220.3125 C 145.972656 222.582031 146.410156 226.316406 146.410156 228.515625 C 146.410156 230.785156 145.972656 234.449219 145.3125 236.792969 C 144.726562 239.0625 143.335938 242.722656 142.308594 244.847656 C 141.210938 246.972656 138.648438 250.488281 136.523438 252.683594 C 134.398438 254.957031 130.738281 257.8125 128.394531 259.058594 C 126.050781 260.375 122.09375 261.914062 119.675781 262.574219 C 117.261719 263.160156 113.523438 263.671875 111.253906 263.671875 C 109.058594 263.671875 105.394531 263.230469 103.050781 262.574219 C 100.707031 261.988281 97.117188 260.59375 94.996094 259.570312 C 92.871094 258.472656 89.355469 255.90625 87.085938 253.785156 C 84.886719 251.660156 82.03125 247.996094 80.785156 245.652344 C 79.46875 243.308594 77.929688 239.355469 77.269531 236.9375 C 76.609375 234.519531 76.097656 230.785156 76.097656 228.515625 C 76.097656 226.316406 76.609375 222.582031 77.195312 220.3125 C 77.855469 217.96875 79.175781 214.378906 80.273438 212.253906 C 81.371094 210.132812 83.933594 206.617188 86.058594 204.34375 C 88.109375 202.148438 91.773438 199.292969 94.1875 197.972656 C 96.53125 196.726562 100.269531 195.191406 102.464844 194.605469 C 104.734375 193.945312 108.472656 193.433594 110.886719 193.433594 Z M 100.632812 207.714844 C 99.023438 208.445312 96.386719 210.425781 94.773438 212.035156 C 93.164062 213.648438 91.039062 216.648438 90.085938 218.628906 C 88.621094 221.628906 88.257812 223.460938 88.257812 228.515625 C 88.257812 234.300781 88.402344 235.105469 90.820312 239.429688 C 92.210938 241.992188 94.335938 244.921875 95.507812 245.945312 C 96.753906 246.972656 99.390625 248.582031 101.367188 249.683594 C 104.515625 251.292969 106.054688 251.585938 111.253906 251.585938 C 116.527344 251.585938 118.066406 251.292969 121.140625 249.683594 C 123.191406 248.582031 125.828125 246.972656 127 245.945312 C 128.246094 244.921875 130.371094 241.992188 131.761719 239.429688 C 134.105469 235.105469 134.324219 234.300781 134.324219 228.515625 C 134.324219 223.316406 134.03125 221.703125 132.421875 218.628906 C 131.394531 216.648438 129.710938 214.011719 128.6875 212.769531 C 127.660156 211.597656 124.949219 209.546875 122.535156 208.226562 C 119.238281 206.394531 117.113281 205.808594 113.085938 205.515625 C 110.300781 205.296875 107.007812 205.445312 105.761719 205.738281 C 104.589844 206.03125 102.246094 206.910156 100.632812 207.714844 Z M 100.632812 207.714844 " fill-opacity="1" fill-rule="evenodd"/></svg>