<svg xmlns="http://www.w3.org/2000/svg" xmlns:xlink="http://www.w3.org/1999/xlink" width="500" zoomAndPan="magnify" viewBox="0 0 375 374.999991" height="500" preserveAspectRatio="xMidYMid meet" version="1.0"><path fill="#ffffff" d="M 33.324219 0 L 361.816406 0 L 364.527344 1.683594 C 366.0625 2.636719 368.1875 4.46875 369.285156 5.710938 C 370.457031 7.03125 371.628906 9.300781 372.070312 10.765625 C 372.507812 12.597656 372.730469 74.925781 372.4375 364.527344 L 370.238281 367.96875 C 368.921875 370.164062 366.796875 372.214844 361.816406 375 L 33.324219 375.074219 L 29.664062 372.65625 C 27.394531 371.191406 25.34375 368.992188 22.339844 363.648438 L 21.972656 314.207031 L 13.183594 314.207031 C 6.371094 314.207031 4.175781 313.988281 3.296875 313.109375 C 2.34375 312.15625 2.199219 308.933594 2.199219 293.480469 C 2.199219 280.003906 2.417969 274.804688 3.078125 274.144531 C 3.664062 273.484375 6.738281 273.195312 21.972656 273.195312 L 21.972656 255.617188 L 13.183594 255.617188 C 6.371094 255.617188 4.175781 255.394531 3.296875 254.515625 C 2.417969 253.636719 2.199219 250.488281 2.199219 235.988281 C 2.199219 223.316406 2.417969 218.410156 3.078125 217.75 C 3.664062 217.089844 6.738281 216.796875 21.972656 216.796875 L 21.972656 197.023438 L 13.183594 197.023438 C 6.371094 197.023438 4.175781 196.800781 3.296875 195.921875 C 2.34375 194.972656 2.199219 190.355469 2.199219 163.476562 C 2.199219 139.894531 2.417969 131.984375 3.078125 131.25 C 3.664062 130.664062 6.8125 130.371094 22.707031 130.371094 L 22.707031 109.863281 L 14.28125 109.863281 C 6.8125 109.863281 5.714844 109.71875 4.394531 108.398438 C 3.003906 107.007812 2.929688 105.980469 2.929688 91.917969 C 2.929688 76.976562 2.929688 76.90625 4.761719 75.074219 C 6.445312 73.316406 6.957031 73.242188 22.707031 73.242188 L 22.851562 41.894531 C 23.070312 11.058594 23.070312 10.546875 24.683594 7.472656 C 25.78125 5.566406 27.6875 3.589844 29.808594 2.199219 Z M 30.46875 9.742188 C 29.003906 11.792969 28.929688 12.671875 28.785156 42.917969 L 28.636719 73.972656 C 36.402344 73.972656 37.71875 74.265625 38.890625 75.4375 C 40.210938 76.832031 40.355469 77.855469 40.355469 92.285156 C 40.355469 106.714844 40.210938 107.738281 38.890625 109.128906 C 37.71875 110.300781 36.402344 110.59375 33.03125 110.59375 L 28.636719 110.59375 L 28.636719 130.371094 C 35.960938 130.371094 38.820312 130.664062 39.625 131.101562 C 41.015625 131.835938 41.089844 132.566406 41.089844 164.0625 C 41.089844 195.554688 41.015625 196.289062 39.625 197.019531 C 38.820312 197.460938 35.960938 197.753906 33.398438 197.753906 L 28.636719 197.753906 L 28.636719 216.796875 C 37.207031 216.796875 39.550781 217.089844 40.136719 217.675781 C 40.871094 218.40625 41.089844 222.949219 41.089844 235.839844 C 41.089844 248.363281 40.871094 253.269531 40.210938 254.003906 C 39.625 254.515625 37.28125 254.882812 33.984375 254.882812 L 28.636719 254.882812 L 28.636719 272.460938 C 50.464844 272.460938 54.125 272.679688 54.785156 273.339844 C 55.519531 274.070312 55.738281 278.90625 55.738281 292.96875 C 55.738281 306.664062 55.519531 311.863281 54.859375 312.597656 C 54.199219 313.257812 50.464844 313.476562 41.308594 313.476562 L 28.636719 313.476562 C 28.636719 356.835938 28.785156 361.523438 29.738281 363.648438 C 30.324219 365.039062 31.859375 366.871094 33.179688 367.675781 C 35.523438 369.140625 36.914062 369.140625 197.828125 369.140625 C 358.667969 369.140625 360.058594 369.140625 362.402344 367.675781 C 363.71875 366.871094 365.257812 365.039062 365.917969 363.648438 C 366.871094 361.375 367.015625 340.136719 367.015625 187.5 C 367.015625 34.863281 366.871094 13.625 365.917969 11.351562 C 365.257812 9.960938 363.71875 8.128906 362.402344 7.324219 C 360.058594 5.933594 358.738281 5.859375 308.203125 5.859375 L 256.421875 5.859375 C 256.421875 185.300781 256.273438 194.96875 255.25 195.921875 C 254.589844 196.507812 253.710938 197.019531 253.199219 197.019531 C 252.757812 197.019531 251.953125 196.65625 251.441406 196.140625 C 250.707031 195.410156 250.488281 175.925781 250.488281 100.488281 L 250.5625 5.859375 L 209.546875 5.859375 C 209.546875 173.875 209.328125 195.410156 208.667969 196.140625 C 208.152344 196.582031 207.347656 197.019531 206.835938 197.019531 C 206.25 197.019531 205.371094 196.507812 204.785156 195.921875 C 203.757812 194.96875 203.6875 183.324219 203.6875 100.339844 L 203.6875 5.859375 C 54.347656 5.859375 35.15625 6.078125 33.765625 6.8125 C 32.8125 7.25 31.347656 8.640625 30.46875 9.742188 Z M 314.28125 21.972656 C 317.285156 21.972656 320.066406 22.484375 321.972656 23.289062 C 323.582031 24.023438 326.148438 25.78125 327.683594 27.171875 C 329.296875 28.5625 331.421875 31.273438 332.445312 33.324219 C 333.910156 36.253906 334.277344 38.011719 334.277344 42.113281 C 334.277344 45.191406 333.765625 48.339844 333.03125 49.949219 C 332.371094 51.488281 330.542969 54.125 329.003906 55.808594 C 327.464844 57.566406 324.390625 59.765625 322.191406 60.71875 C 319.410156 61.960938 316.992188 62.476562 313.914062 62.476562 C 311.5 62.476562 308.347656 61.960938 306.957031 61.304688 C 305.492188 60.71875 302.929688 59.179688 301.246094 57.933594 C 299.121094 56.394531 297.363281 54.199219 295.898438 51.050781 C 293.847656 46.949219 293.628906 45.996094 293.921875 41.382812 C 294.140625 38.160156 294.800781 35.15625 295.75 33.324219 C 296.632812 31.714844 298.535156 29.148438 300.074219 27.683594 C 301.609375 26.21875 304.394531 24.316406 306.226562 23.511719 C 308.421875 22.484375 311.058594 21.972656 314.28125 21.972656 Z M 316.113281 78.148438 C 317.722656 78.367188 320.652344 79.246094 322.558594 80.125 C 324.535156 80.933594 327.464844 83.054688 329.003906 84.742188 C 330.542969 86.5 332.371094 89.136719 333.03125 90.601562 C 333.765625 92.285156 334.277344 95.433594 334.277344 98.511719 C 334.277344 102.613281 333.910156 104.371094 332.445312 107.300781 C 331.421875 109.277344 329.296875 112.058594 327.683594 113.453125 C 326.148438 114.84375 323.582031 116.601562 321.972656 117.332031 C 320.066406 118.140625 317.285156 118.652344 314.28125 118.652344 C 311.058594 118.652344 308.421875 118.140625 306.226562 117.113281 C 304.394531 116.308594 301.609375 114.402344 300.074219 112.9375 C 298.535156 111.472656 296.628906 108.910156 295.75 107.300781 C 294.800781 105.46875 294.140625 102.464844 293.921875 99.242188 C 293.628906 94.703125 293.847656 93.675781 295.824219 89.722656 C 296.996094 87.230469 299.195312 84.375 300.804688 83.054688 C 302.34375 81.8125 304.46875 80.347656 305.492188 79.832031 C 306.445312 79.320312 308.640625 78.660156 310.253906 78.367188 C 311.863281 78.003906 314.5 77.929688 316.113281 78.148438 Z M 155.714844 102.464844 L 158.277344 104.222656 C 159.742188 105.175781 161.132812 106.933594 161.644531 108.398438 C 162.304688 110.300781 162.597656 124.65625 162.597656 162.964844 C 162.597656 193.726562 162.378906 215.992188 161.9375 217.527344 C 161.574219 218.921875 160.402344 220.898438 159.300781 221.921875 C 157.472656 223.679688 157.03125 223.753906 131.542969 224.488281 L 131.03125 250.121094 L 134.179688 252.976562 C 135.9375 254.589844 140.550781 258.910156 151.683594 269.53125 L 151.683594 314.207031 L 191.75 314.207031 C 222.070312 314.28125 232.179688 314.5 233.054688 315.160156 C 233.714844 315.671875 234.667969 316.917969 235.105469 318.015625 C 235.546875 319.1875 235.914062 321.898438 235.914062 328.125 L 242.210938 328.269531 C 247.339844 328.492188 248.730469 328.710938 249.316406 329.734375 C 249.976562 330.6875 249.976562 331.421875 249.316406 332.300781 C 248.730469 333.398438 247.339844 333.617188 235.914062 333.984375 L 235.914062 338.011719 C 235.914062 340.210938 235.546875 342.917969 235.109375 344.019531 C 234.667969 345.191406 233.714844 346.433594 233.058594 346.949219 C 232.105469 347.679688 215.257812 347.898438 160.109375 347.898438 C 89.867188 347.972656 88.257812 347.898438 86.5 346.507812 C 84.816406 345.261719 84.59375 344.457031 84.300781 333.984375 L 77.929688 333.765625 C 72.804688 333.617188 71.410156 333.398438 70.824219 332.300781 C 70.238281 331.421875 70.238281 330.6875 70.824219 329.734375 C 71.410156 328.710938 72.804688 328.492188 84.300781 328.125 L 84.449219 322.925781 C 84.59375 318.382812 84.886719 317.578125 86.5 316.332031 C 88.183594 314.941406 89.574219 314.867188 146.558594 314.941406 L 146.558594 272.460938 L 125.976562 253.050781 L 126.050781 224.851562 L 70.238281 224.488281 L 65.992188 219.726562 L 65.992188 164.0625 C 65.992188 128.394531 66.210938 107.886719 66.722656 106.933594 C 67.089844 106.128906 68.480469 104.808594 69.800781 104.003906 C 72.070312 102.613281 73.535156 102.539062 155.714844 102.464844 Z M 81.226562 134.546875 L 82.105469 136.230469 L 145.824219 136.230469 C 146.632812 132.714844 146.335938 131.980469 145.3125 131.25 C 144.289062 130.589844 136.964844 130.371094 113.820312 130.371094 C 86.28125 130.371094 83.570312 130.445312 82.03125 131.617188 C 80.640625 132.714844 80.566406 133.152344 81.226562 134.546875 Z M 81.226562 166.773438 L 82.105469 168.457031 L 145.824219 168.457031 C 146.632812 164.941406 146.335938 164.207031 145.3125 163.476562 C 144.289062 162.816406 136.964844 162.597656 113.820312 162.597656 C 86.28125 162.597656 83.570312 162.671875 82.03125 163.84375 C 80.640625 164.941406 80.566406 165.378906 81.226562 166.773438 Z M 81.226562 199 L 82.105469 200.683594 L 145.824219 200.683594 C 146.632812 197.167969 146.335938 196.433594 145.3125 195.703125 C 144.289062 195.042969 136.964844 194.824219 113.820312 194.824219 C 86.28125 194.824219 83.570312 194.898438 82.03125 196.070312 C 80.640625 197.167969 80.566406 197.609375 81.226562 199 Z M 315.746094 134.324219 C 318.089844 134.546875 321.386719 135.570312 323.730469 136.742188 C 326.21875 137.988281 328.636719 140.039062 330.175781 142.089844 C 331.566406 143.921875 333.179688 147.21875 333.835938 149.414062 C 334.570312 152.050781 334.789062 154.613281 334.421875 156.738281 C 334.203125 158.570312 333.398438 161.351562 332.664062 162.964844 C 331.933594 164.574219 330.320312 167.066406 329.148438 168.457031 C 327.90625 169.847656 325.269531 171.828125 323.289062 172.851562 C 320.359375 174.390625 318.675781 174.683594 313.917969 174.683594 C 308.863281 174.683594 307.542969 174.390625 304.761719 172.777344 C 302.929688 171.679688 300.367188 169.628906 299.046875 168.164062 C 297.730469 166.699219 296.117188 164.429688 295.460938 163.109375 C 294.800781 161.867188 294.066406 158.789062 293.921875 156.371094 C 293.703125 153.808594 293.921875 150.804688 294.507812 149.046875 C 295.019531 147.4375 296.339844 144.800781 297.363281 143.1875 C 298.460938 141.578125 300.511719 139.453125 301.832031 138.429688 C 303.222656 137.402344 306.007812 136.011719 308.058594 135.277344 C 310.546875 134.398438 312.890625 134.105469 315.746094 134.324219 Z M 264.039062 211.667969 C 264.84375 211.667969 265.941406 212.035156 266.457031 212.546875 C 266.96875 213.0625 267.40625 215.183594 267.40625 221.191406 L 279.859375 221.191406 L 280.003906 216.578125 C 280.152344 212.328125 280.296875 212.035156 282.054688 211.816406 C 283.152344 211.667969 284.179688 212.035156 284.765625 212.914062 C 285.277344 213.648438 285.71875 215.769531 285.71875 221.191406 L 297.4375 221.191406 L 297.363281 217.675781 C 297.363281 215.769531 297.800781 213.648438 298.316406 212.914062 C 298.902344 212.035156 299.925781 211.667969 301.097656 211.816406 C 302.78125 212.035156 302.929688 212.328125 303.296875 221.191406 L 309.15625 221.191406 C 313.257812 221.191406 315.746094 221.558594 317.578125 222.4375 C 318.96875 223.167969 320.359375 224.265625 320.652344 224.851562 C 320.945312 225.4375 321.3125 228.734375 321.972656 238.402344 L 326.148438 238.550781 C 330.101562 238.769531 330.394531 238.914062 330.761719 240.746094 C 331.054688 241.917969 330.835938 243.089844 330.394531 243.53125 C 329.957031 243.894531 327.757812 244.1875 321.605469 243.894531 L 321.972656 255.980469 L 326.148438 256.128906 C 330.101562 256.347656 330.394531 256.492188 330.835938 258.324219 C 331.199219 259.863281 330.90625 260.59375 329.882812 261.328125 C 329.148438 261.839844 326.953125 262.207031 321.605469 262.207031 L 321.605469 273.925781 L 325.046875 273.925781 C 326.953125 273.925781 329.148438 274.292969 329.882812 274.804688 C 330.90625 275.539062 331.199219 276.269531 330.835938 277.734375 C 330.394531 279.640625 330.101562 279.785156 321.972656 280.152344 L 321.605469 286.890625 C 321.238281 292.75 321.019531 293.847656 319.410156 295.460938 C 317.722656 297.21875 316.992188 297.363281 303.660156 297.730469 L 303.441406 302.269531 C 303.296875 306.664062 303.148438 306.886719 301.246094 307.324219 C 299.78125 307.691406 298.972656 307.472656 298.316406 306.445312 C 297.800781 305.640625 297.363281 303.296875 297.4375 297.363281 L 285.71875 297.363281 L 285.71875 301.171875 C 285.71875 303.296875 285.277344 305.640625 284.765625 306.445312 C 284.105469 307.472656 283.375 307.691406 281.835938 307.324219 C 279.929688 306.886719 279.785156 306.664062 279.492188 297.730469 L 267.40625 297.363281 L 267.1875 301.832031 C 267.039062 305.199219 266.675781 306.59375 265.722656 307.179688 C 264.769531 307.765625 264.109375 307.765625 263.160156 307.179688 C 262.28125 306.59375 261.839844 305.273438 261.546875 298.828125 L 255.320312 298.828125 C 251.441406 298.828125 248.289062 298.460938 247.046875 297.804688 C 245.949219 297.289062 244.628906 295.972656 244.117188 294.875 C 243.601562 293.847656 243.238281 290.332031 243.238281 281.25 L 239.0625 281.03125 C 236.058594 280.957031 234.742188 280.519531 234.15625 279.566406 C 233.570312 278.6875 233.570312 277.953125 234.15625 277.003906 C 234.742188 276.125 236.058594 275.683594 243.238281 275.390625 L 243.238281 262.941406 L 239.355469 262.941406 C 237.230469 262.941406 235.105469 262.574219 234.59375 262.0625 C 234.082031 261.546875 233.640625 260.667969 233.640625 260.15625 C 233.640625 259.71875 234.226562 258.765625 234.8125 258.179688 C 235.546875 257.519531 237.378906 257.082031 243.238281 257.082031 L 243.238281 244.628906 L 239.355469 244.628906 C 237.230469 244.628906 235.109375 244.261719 234.59375 243.75 C 234.082031 243.238281 233.644531 242.359375 233.644531 241.847656 C 233.644531 241.40625 234.230469 240.453125 234.816406 239.867188 C 235.546875 239.210938 237.378906 238.769531 243.238281 238.769531 L 243.238281 232.542969 C 243.238281 226.683594 243.3125 226.171875 245.363281 223.902344 C 247.414062 221.632812 247.632812 221.558594 261.546875 221.191406 L 261.402344 216.945312 C 261.328125 214.601562 261.546875 212.402344 261.914062 212.183594 C 262.207031 211.890625 263.160156 211.671875 264.039062 211.671875 Z M 264.039062 211.667969 " fill-opacity="1" fill-rule="evenodd"/></svg>