<svg xmlns="http://www.w3.org/2000/svg" xmlns:xlink="http://www.w3.org/1999/xlink" width="500" zoomAndPan="magnify" viewBox="0 0 375 374.999991" height="500" preserveAspectRatio="xMidYMid meet" version="1.0"><path fill="#ffffff" d="M 19.410156 0.0742188 L 205.445312 0.0742188 L 210.058594 2.195312 C 212.546875 3.441406 215.992188 5.785156 217.675781 7.542969 C 219.285156 9.226562 221.558594 12.449219 224.488281 18.675781 L 225.21875 171.972656 L 230.492188 169.847656 C 233.421875 168.675781 238.914062 166.917969 242.578125 165.964844 C 246.3125 165.015625 252.832031 163.769531 257.078125 163.328125 C 261.472656 162.816406 268.503906 162.597656 273.558594 162.816406 C 278.394531 163.035156 285.644531 163.84375 289.671875 164.722656 C 293.699219 165.527344 300 167.210938 303.589844 168.457031 C 307.175781 169.777344 313.621094 172.558594 317.871094 174.757812 C 322.117188 177.027344 328.199219 180.6875 331.347656 182.960938 C 334.496094 185.230469 339.769531 189.769531 343.066406 192.992188 C 346.363281 196.214844 351.195312 201.855469 353.90625 205.445312 C 356.617188 209.105469 360.644531 215.480469 362.839844 219.726562 C 365.039062 223.972656 367.820312 230.199219 368.992188 233.644531 C 370.238281 237.085938 372.070312 243.96875 373.09375 249.023438 C 374.632812 256.421875 375 260.230469 375 268.578125 C 375 276.710938 374.632812 280.957031 373.242188 287.621094 C 372.289062 292.382812 370.605469 298.902344 369.507812 302.125 C 368.480469 305.347656 366.210938 310.988281 364.453125 314.574219 C 362.769531 318.164062 359.398438 324.171875 357.054688 327.757812 C 354.34375 331.785156 349.292969 337.792969 343.871094 343.214844 C 337.71875 349.4375 332.886719 353.539062 327.757812 356.910156 C 323.730469 359.546875 317.652344 363.0625 314.207031 364.671875 C 310.765625 366.285156 305.492188 368.410156 302.488281 369.433594 C 299.488281 370.386719 292.894531 372.070312 287.839844 373.097656 C 280.664062 374.5625 276.5625 375 268.796875 375 C 261.035156 375 256.933594 374.5625 249.753906 373.097656 C 244.703125 372.070312 238.109375 370.386719 235.105469 369.433594 C 232.105469 368.410156 226.609375 366.136719 223.023438 364.453125 C 219.433594 362.695312 213.648438 359.472656 204.199219 353.394531 L 200.757812 356.761719 C 198.707031 358.8125 195.996094 360.570312 193.726562 361.304688 C 190.648438 362.328125 187.058594 362.550781 171.753906 362.550781 C 157.398438 362.550781 152.710938 362.328125 150.144531 361.449219 C 148.316406 360.863281 145.679688 359.398438 144.285156 358.300781 C 142.894531 357.128906 140.84375 354.417969 139.671875 352.222656 C 138.0625 349 137.695312 347.316406 137.695312 337.648438 L 87.15625 337.648438 L 87.15625 342.921875 C 87.15625 346.949219 86.71875 349.144531 85.472656 351.929688 C 84.519531 353.90625 82.46875 356.691406 80.859375 358.007812 C 79.320312 359.253906 76.539062 360.863281 74.707031 361.449219 C 72.144531 362.328125 67.457031 362.550781 53.101562 362.550781 C 38.746094 362.550781 34.058594 362.328125 31.492188 361.449219 C 29.664062 360.863281 27.027344 359.398438 25.632812 358.300781 C 24.242188 357.128906 22.191406 354.417969 21.019531 352.222656 C 19.335938 348.925781 19.042969 347.316406 19.042969 336.914062 L 14.574219 334.863281 C 11.71875 333.617188 8.863281 331.640625 6.882812 329.371094 C 5.125 327.464844 2.929688 324.390625 0.367188 318.96875 L 0.367188 18.675781 L 2.34375 14.648438 C 3.441406 12.453125 5.710938 9.230469 7.46875 7.472656 C 9.226562 5.785156 12.597656 3.441406 15.015625 2.199219 Z M 15.601562 16.992188 C 14.722656 17.945312 13.695312 19.628906 13.257812 20.726562 C 12.671875 22.117188 12.453125 67.089844 12.453125 168.824219 C 12.453125 270.628906 12.671875 315.601562 13.257812 316.992188 C 13.695312 318.089844 14.722656 319.773438 15.601562 320.726562 C 16.480469 321.679688 18.53125 323.070312 20.140625 323.875 C 22.925781 325.121094 26.808594 325.195312 100.5625 325.195312 C 143.113281 325.195312 177.976562 324.976562 177.976562 324.683594 C 177.976562 324.390625 176.367188 321.019531 174.390625 317.136719 C 172.410156 313.328125 169.921875 307.761719 168.824219 304.6875 C 167.722656 301.683594 166.039062 295.75 165.085938 291.503906 C 163.84375 286.230469 163.109375 280.589844 162.816406 273.191406 C 162.597656 266.601562 162.742188 260.15625 163.257812 255.980469 C 163.769531 252.390625 164.792969 246.753906 165.601562 243.53125 C 166.480469 240.308594 167.796875 235.691406 168.601562 233.277344 C 169.410156 230.859375 171.753906 225.585938 173.730469 221.558594 C 175.78125 217.527344 179.003906 211.960938 180.980469 209.105469 C 182.886719 206.324219 186.546875 201.5625 189.109375 198.632812 C 191.675781 195.703125 196.363281 191.089844 199.585938 188.378906 C 202.808594 185.667969 206.980469 182.519531 208.886719 181.273438 L 212.402344 179.078125 C 212.402344 47.535156 212.183594 22.117188 211.597656 20.726562 C 211.230469 19.628906 209.765625 17.652344 208.519531 16.332031 C 207.203125 15.015625 205.003906 13.550781 203.613281 13.183594 C 202 12.742188 166.773438 12.523438 112.058594 12.523438 C 27.097656 12.523438 22.925781 12.597656 20.140625 13.84375 C 18.53125 14.648438 16.480469 16.039062 15.601562 16.992188 Z M 250.121094 177.027344 C 246.898438 177.683594 241.773438 179.003906 238.769531 180.027344 C 235.765625 180.980469 230.273438 183.324219 226.683594 185.082031 C 223.023438 186.914062 217.457031 190.28125 214.304688 192.554688 C 211.082031 194.824219 205.957031 199.144531 202.878906 202.148438 C 199.878906 205.222656 195.628906 209.984375 193.503906 212.769531 C 191.382812 215.625 187.9375 221.410156 185.742188 225.585938 C 183.542969 229.832031 180.980469 235.765625 179.957031 238.769531 C 179.003906 241.84375 177.539062 247.117188 176.804688 250.488281 C 175.78125 255.175781 175.414062 259.789062 175.414062 268.796875 C 175.414062 277.878906 175.78125 282.496094 176.804688 287.109375 C 177.539062 290.550781 179.148438 296.191406 180.320312 299.558594 C 181.566406 303.003906 183.691406 308.128906 185.15625 310.914062 C 186.546875 313.769531 189.332031 318.53125 191.382812 321.53125 C 193.433594 324.609375 198.558594 330.542969 202.808594 334.863281 C 207.421875 339.476562 213.136719 344.3125 216.796875 346.65625 C 220.238281 348.925781 225.585938 352 228.734375 353.539062 C 232.324219 355.296875 234.667969 356.101562 235.035156 355.589844 C 235.328125 355.222656 237.011719 342.039062 238.695312 326.292969 C 240.378906 310.621094 241.917969 296.777344 242.140625 295.53125 C 242.433594 293.554688 242.140625 293.1875 238.695312 291.136719 C 236.574219 289.964844 232.542969 286.667969 229.613281 283.8125 C 226.757812 281.03125 223.097656 276.707031 221.558594 274.292969 C 219.945312 271.875 217.601562 267.113281 216.285156 263.671875 C 214.964844 260.082031 213.574219 254.589844 213.0625 250.488281 C 212.328125 245.066406 212.328125 242.136719 212.988281 237.15625 C 213.5 233.640625 214.820312 228.003906 216.066406 224.707031 C 217.238281 221.410156 219.582031 216.503906 221.265625 213.867188 C 222.949219 211.304688 226.027344 207.347656 228.078125 205.222656 C 230.125 203.027344 233.9375 199.730469 236.574219 197.898438 C 240.96875 194.75 241.625 194.457031 245.800781 194.457031 C 249.683594 194.457031 250.707031 194.75 252.320312 196.289062 C 253.417969 197.3125 254.808594 199.21875 255.324219 200.535156 C 256.054688 202.222656 256.347656 206.542969 256.347656 216.0625 L 256.347656 229.246094 L 268.800781 237.671875 L 281.25 229.246094 C 281.25 205.515625 281.46875 201.707031 282.273438 200.171875 C 282.859375 199.070312 284.179688 197.3125 285.277344 196.289062 C 286.667969 195.042969 288.355469 194.382812 290.625 194.238281 C 293.335938 193.945312 294.871094 194.386719 298.097656 196.070312 C 300.292969 197.167969 304.761719 200.757812 307.984375 203.980469 C 311.425781 207.421875 315.234375 212.035156 316.917969 214.964844 C 318.605469 217.820312 320.800781 222.730469 321.898438 225.953125 C 323 229.175781 324.171875 234.449219 324.535156 237.671875 C 324.976562 240.894531 325.050781 245.726562 324.753906 248.289062 C 324.535156 250.925781 323.730469 255.394531 323 258.179688 C 322.265625 261.035156 320.652344 265.503906 319.335938 268.066406 C 318.019531 270.703125 315.601562 274.804688 313.84375 277.222656 C 312.160156 279.636719 309.007812 283.226562 306.8125 285.203125 C 304.613281 287.183594 301.097656 289.820312 298.972656 291.0625 C 295.3125 293.261719 295.09375 293.480469 295.457031 295.898438 C 295.679688 297.363281 297.214844 311.425781 298.972656 327.246094 C 300.804688 343.796875 302.417969 356.03125 302.855469 356.03125 C 303.222656 356.03125 306.738281 354.417969 310.546875 352.515625 C 314.429688 350.609375 320.289062 347.019531 323.65625 344.605469 C 327.027344 342.1875 332.59375 337.28125 336.109375 333.617188 C 339.625 330.027344 344.3125 324.242188 346.582031 320.800781 C 348.851562 317.429688 351.855469 312.15625 353.320312 309.082031 C 354.710938 306.078125 356.6875 301.171875 357.640625 298.09375 C 358.667969 295.09375 360.132812 289.820312 360.863281 286.375 C 361.742188 281.980469 362.109375 276.929688 362.109375 268.796875 C 362.109375 260.742188 361.742188 255.6875 360.863281 251.21875 C 360.132812 247.851562 358.519531 242.136719 357.347656 238.621094 C 356.175781 235.105469 354.050781 229.832031 352.585938 226.902344 C 351.121094 223.972656 347.972656 218.773438 345.628906 215.332031 C 343.285156 211.960938 338.816406 206.542969 335.667969 203.320312 C 332.519531 200.097656 327.464844 195.628906 324.460938 193.433594 C 321.460938 191.160156 315.671875 187.644531 311.644531 185.59375 C 307.617188 183.542969 301.683594 180.980469 298.460938 179.882812 C 295.238281 178.855469 290.332031 177.464844 287.476562 176.878906 C 284.617188 176.21875 277.441406 175.632812 271.363281 175.488281 C 265.28125 175.339844 259.351562 175.339844 258.179688 175.5625 C 257.007812 175.707031 253.34375 176.367188 250.121094 177.027344 Z M 293.773438 219.871094 C 293.699219 229.980469 293.480469 232.324219 292.234375 234.742188 C 291.136719 237.085938 289.085938 238.914062 282.203125 243.53125 C 273.558594 249.390625 273.558594 249.390625 268.796875 249.390625 C 264.039062 249.390625 263.890625 249.390625 255.613281 243.824219 C 249.609375 239.792969 246.753906 237.378906 245.582031 235.398438 C 244.042969 232.835938 243.96875 231.589844 243.894531 220.679688 C 243.894531 211.667969 243.675781 208.738281 242.945312 208.8125 C 242.503906 208.8125 239.941406 211.011719 237.304688 213.71875 C 234.226562 216.941406 231.589844 220.605469 229.832031 224.195312 C 228.296875 227.34375 226.609375 232.324219 225.878906 235.839844 C 225 240.378906 224.851562 243.53125 225.21875 247.191406 C 225.511719 250.046875 226.246094 254.003906 226.832031 255.980469 C 227.417969 258.03125 229.101562 261.988281 230.566406 264.769531 C 232.105469 267.625 235.109375 271.726562 237.304688 274 C 239.503906 276.269531 243.75 279.636719 246.605469 281.542969 C 251 284.324219 252.246094 285.570312 253.492188 288.425781 L 255.101562 291.871094 C 249.242188 344.675781 247.632812 360.058594 247.707031 360.203125 C 247.851562 360.277344 251.222656 360.863281 255.25 361.449219 C 259.277344 362.035156 265.355469 362.546875 268.800781 362.546875 C 272.242188 362.546875 278.320312 362.035156 282.347656 361.449219 C 286.378906 360.863281 289.746094 360.277344 289.820312 360.203125 C 289.894531 360.058594 288.28125 344.53125 286.230469 325.5625 L 282.496094 291.136719 C 285.277344 285.71875 286.964844 284.105469 290.917969 281.542969 C 293.847656 279.636719 298.097656 276.269531 300.292969 274 C 302.492188 271.726562 305.492188 267.554688 307.03125 264.769531 C 308.496094 261.988281 310.253906 257.664062 310.988281 255.25 C 311.792969 252.464844 312.230469 248.4375 312.230469 243.894531 C 312.230469 239.429688 311.792969 235.472656 310.988281 232.542969 C 310.253906 230.125 308.714844 226.390625 307.617188 224.121094 C 306.519531 221.921875 304.320312 218.480469 302.710938 216.429688 C 301.097656 214.453125 298.535156 211.667969 296.851562 210.351562 L 293.921875 207.933594 Z M 31.421875 341.894531 C 31.421875 344.96875 31.785156 346.582031 32.8125 347.898438 L 34.277344 349.730469 L 71.851562 349.730469 C 74.339844 346.582031 74.707031 344.96875 74.707031 341.894531 L 74.707031 337.644531 L 31.492188 337.644531 Z M 150.074219 341.894531 C 150.144531 344.238281 150.511719 346.65625 151.023438 347.242188 C 151.539062 347.898438 152.636719 348.851562 153.589844 349.292969 C 154.6875 349.878906 160.765625 350.171875 172.484375 350.171875 L 189.695312 350.171875 C 192.480469 347.3125 193.285156 345.921875 193.285156 345.191406 C 193.285156 344.53125 192.1875 342.554688 190.722656 340.796875 L 188.160156 337.71875 L 150.074219 337.71875 Z M 111.988281 24.976562 C 167.429688 24.902344 177.390625 25.050781 180.980469 26 C 183.324219 26.585938 186.472656 27.90625 187.9375 28.859375 C 189.476562 29.808594 192.039062 32.007812 193.578125 33.765625 C 195.191406 35.523438 197.167969 38.453125 197.972656 40.285156 C 199.511719 43.507812 199.511719 44.53125 199.511719 168.824219 L 197.605469 172.851562 C 196.582031 175.046875 194.238281 178.34375 192.480469 180.175781 C 190.722656 181.933594 187.425781 184.277344 181.199219 187.132812 L 43.503906 187.132812 L 39.476562 185.230469 C 37.132812 184.058594 33.835938 181.492188 31.566406 179.148438 C 28.5625 175.925781 27.464844 174.023438 26.292969 170.140625 C 24.828125 165.308594 24.753906 163.621094 25.195312 44.3125 L 27.097656 40.28125 C 28.125 38.085938 30.101562 35.007812 31.492188 33.398438 C 32.8125 31.859375 35.449219 29.734375 37.28125 28.710938 C 39.109375 27.613281 42.039062 26.367188 43.871094 25.925781 C 46.289062 25.269531 63.867188 24.976562 111.988281 24.976562 Z M 41.382812 40.871094 C 40.648438 41.527344 39.402344 43.433594 38.671875 45.042969 C 37.5 47.535156 37.28125 49.953125 37.28125 61.375 L 37.28125 74.707031 L 187.425781 74.707031 C 187.425781 53.320312 187.058594 46.800781 186.621094 45.628906 C 186.179688 44.53125 185.15625 42.773438 184.277344 41.820312 C 183.398438 40.867188 181.347656 39.476562 179.734375 38.746094 C 176.953125 37.5 173.511719 37.425781 112.71875 37.425781 C 58.300781 37.425781 48.191406 37.574219 45.703125 38.523438 C 44.089844 39.109375 42.113281 40.136719 41.382812 40.867188 Z M 37.28125 125.242188 L 187.425781 125.242188 L 187.425781 87.890625 L 37.28125 87.890625 Z M 37.28125 151.097656 C 37.28125 162.523438 37.5 164.867188 38.671875 167.359375 C 39.402344 168.96875 40.796875 171.019531 41.746094 171.898438 C 42.699219 172.777344 44.382812 173.875 45.484375 174.242188 C 46.875 174.828125 68.1875 175.046875 112.351562 175.046875 C 165.746094 175.046875 177.613281 174.902344 179.515625 174.023438 C 180.835938 173.511719 182.8125 172.117188 183.910156 170.945312 C 184.9375 169.773438 186.179688 167.945312 186.621094 166.84375 C 187.058594 165.671875 187.425781 159.082031 187.425781 151.246094 L 187.425781 137.695312 L 37.28125 137.695312 Z M 74.558594 206.617188 C 75.804688 206.617188 77.34375 206.835938 78.003906 207.128906 C 78.660156 207.421875 79.6875 208.59375 80.199219 209.691406 C 80.710938 210.789062 81.226562 212.402344 81.226562 213.207031 C 81.226562 214.011719 80.417969 215.476562 79.539062 216.503906 C 78.660156 217.457031 76.832031 218.480469 75.511719 218.699219 C 73.609375 218.992188 72.730469 218.628906 70.972656 216.871094 C 69.433594 215.332031 68.773438 213.941406 68.773438 212.402344 C 68.773438 211.082031 69.507812 209.472656 70.605469 208.375 C 71.703125 207.273438 73.167969 206.617188 74.558594 206.617188 Z M 99.828125 206.617188 C 101.660156 206.617188 102.976562 207.128906 104.296875 208.445312 C 105.394531 209.546875 106.128906 211.082031 106.128906 212.476562 C 106.128906 213.71875 105.394531 215.476562 104.296875 216.648438 C 102.976562 218.1875 101.878906 218.699219 99.902344 218.699219 C 97.851562 218.699219 96.753906 218.1875 95.433594 216.648438 C 94.335938 215.40625 93.675781 213.792969 93.675781 212.402344 C 93.675781 211.085938 94.410156 209.472656 95.507812 208.375 C 96.679688 207.128906 98.070312 206.617188 99.828125 206.617188 Z M 124.949219 206.617188 C 126.5625 206.617188 127.953125 207.203125 129.199219 208.445312 C 130.445312 209.691406 131.03125 211.082031 131.03125 212.839844 C 131.03125 214.820312 130.515625 215.769531 128.613281 217.308594 C 126.78125 218.773438 125.757812 219.066406 124.070312 218.773438 C 122.828125 218.480469 121.070312 217.457031 120.191406 216.503906 C 119.3125 215.476562 118.578125 214.011719 118.578125 213.207031 C 118.578125 212.402344 119.019531 210.789062 119.675781 209.617188 C 120.261719 208.445312 121.140625 207.273438 121.65625 207.054688 C 122.167969 206.910156 123.632812 206.6875 124.949219 206.617188 Z M 149.707031 206.617188 C 151.464844 206.617188 152.855469 207.203125 154.101562 208.445312 C 155.320312 209.667969 155.90625 211.058594 155.859375 212.621094 C 155.859375 213.941406 155.417969 215.550781 154.980469 216.136719 C 154.46875 216.796875 153.296875 217.75 152.417969 218.1875 C 151.539062 218.628906 149.851562 218.847656 148.753906 218.699219 C 147.65625 218.480469 146.191406 217.75 145.53125 217.015625 C 144.800781 216.355469 144.066406 214.746094 143.773438 213.574219 C 143.40625 211.816406 143.699219 210.863281 145.238281 208.960938 C 146.777344 207.128906 147.800781 206.617188 149.707031 206.617188 Z M 113.453125 237.742188 C 114.402344 237.964844 116.015625 238.914062 116.894531 239.941406 C 118.503906 241.699219 118.578125 242.136719 118.578125 277.660156 L 116.527344 279.492188 C 115.355469 280.589844 113.671875 281.324219 112.5 281.324219 C 111.253906 281.324219 109.644531 280.445312 106.128906 276.929688 L 106.128906 259.496094 C 106.054688 244.703125 106.273438 241.84375 107.300781 240.378906 C 107.886719 239.5 109.128906 238.402344 110.007812 238.035156 C 110.886719 237.671875 112.425781 237.597656 113.453125 237.742188 Z M 88.550781 250.269531 C 89.5 250.488281 91.113281 251.441406 91.992188 252.464844 C 92.871094 253.417969 93.675781 255.101562 93.675781 256.199219 C 93.675781 257.300781 92.796875 259.570312 91.699219 261.179688 C 90.601562 262.792969 89.28125 265.429688 88.695312 267.039062 C 88.183594 268.652344 87.742188 272.242188 87.742188 275.097656 C 87.742188 277.953125 88.257812 281.617188 88.914062 283.519531 C 89.574219 285.277344 91.039062 288.207031 92.210938 289.890625 C 93.382812 291.648438 96.09375 294.140625 98.21875 295.53125 C 100.339844 296.921875 104.222656 298.609375 106.859375 299.339844 C 110.886719 300.367188 112.28125 300.367188 116.382812 299.632812 C 118.945312 299.121094 122.3125 298.097656 123.851562 297.363281 C 125.390625 296.558594 128.101562 294.433594 129.929688 292.675781 C 131.6875 290.84375 134.105469 287.476562 135.203125 285.132812 C 136.816406 281.691406 137.183594 279.859375 137.183594 274.953125 C 137.253906 269.386719 137.035156 268.652344 134.03125 262.867188 C 131.46875 257.8125 131.03125 256.421875 131.46875 254.589844 C 131.835938 253.417969 132.933594 251.953125 133.960938 251.367188 C 134.910156 250.707031 136.667969 250.195312 137.695312 250.195312 C 138.792969 250.195312 140.40625 250.855469 141.355469 251.734375 C 142.308594 252.613281 143.992188 254.957031 145.09375 256.859375 C 146.117188 258.839844 147.582031 262.0625 148.167969 264.113281 C 148.753906 266.089844 149.488281 269.53125 149.78125 271.800781 C 150 274.074219 149.78125 278.175781 149.265625 281.324219 C 148.753906 284.398438 147.289062 288.867188 145.972656 291.578125 C 144.652344 294.140625 141.941406 298.097656 139.964844 300.367188 C 137.914062 302.5625 134.324219 305.492188 131.980469 306.957031 C 129.636719 308.351562 125.902344 310.035156 123.707031 310.765625 C 121.433594 311.5 117.699219 312.230469 115.28125 312.523438 C 112.5 312.746094 108.835938 312.523438 105.394531 311.792969 C 102.320312 311.132812 97.925781 309.59375 95.507812 308.421875 C 93.089844 307.25 89.574219 304.980469 87.816406 303.441406 C 85.984375 301.832031 83.054688 298.460938 81.371094 295.898438 C 79.613281 293.335938 77.488281 289.015625 76.683594 286.449219 C 75.660156 283.15625 75.21875 279.640625 75.21875 275.097656 C 75.144531 270.191406 75.585938 267.261719 76.757812 263.746094 C 77.636719 261.109375 79.539062 257.226562 80.933594 255.101562 C 82.324219 252.980469 84.226562 250.929688 85.105469 250.5625 C 85.984375 250.195312 87.523438 250.121094 88.550781 250.269531 Z M 268.285156 312.742188 C 269.53125 312.742188 271.433594 313.402344 274.585938 315.746094 L 274.585938 331.128906 C 274.585938 346.433594 274.585938 346.507812 272.753906 348.339844 C 271.65625 349.4375 270.117188 350.171875 268.726562 350.171875 C 267.40625 350.171875 265.648438 349.4375 262.5 346.582031 L 262.5 331.566406 C 262.5 316.699219 262.5 316.550781 264.257812 314.648438 C 265.355469 313.476562 266.820312 312.816406 268.285156 312.742188 Z M 112.5 49.878906 C 127.292969 49.878906 132.203125 50.097656 133.738281 50.832031 C 134.839844 51.417969 136.230469 52.808594 136.742188 53.980469 C 137.621094 55.738281 137.621094 56.46875 136.742188 58.519531 C 136.230469 59.914062 135.203125 61.304688 134.472656 61.671875 C 133.738281 62.035156 123.707031 62.328125 112.132812 62.257812 C 91.332031 62.257812 91.039062 62.257812 89.429688 60.644531 C 88.328125 59.621094 87.742188 58.15625 87.742188 56.617188 C 87.742188 55.296875 88.035156 53.6875 88.328125 53.027344 C 88.621094 52.367188 89.867188 51.34375 91.113281 50.832031 C 92.652344 50.171875 98.582031 49.878906 112.5 49.878906 Z M 112.28125 100.339844 C 132.640625 100.339844 133.667969 100.414062 135.203125 101.804688 C 136.082031 102.683594 137.035156 104.078125 137.253906 104.957031 C 137.546875 105.90625 137.253906 107.59375 136.742188 108.691406 C 136.230469 109.863281 134.839844 111.253906 133.738281 111.839844 C 132.203125 112.574219 127.222656 112.867188 112.351562 112.867188 C 97.410156 112.867188 92.429688 112.574219 90.894531 111.839844 C 89.792969 111.328125 88.621094 110.300781 88.328125 109.644531 C 88.035156 108.984375 87.742188 107.371094 87.671875 106.128906 C 87.523438 104.515625 88.035156 103.273438 89.207031 102.097656 C 90.964844 100.414062 90.964844 100.414062 112.28125 100.34375 Z M 133.226562 150.21875 L 135.203125 151.976562 C 136.742188 153.296875 137.253906 154.394531 137.253906 156.445312 C 137.253906 158.421875 136.742188 159.519531 133.226562 162.671875 L 91.480469 162.671875 L 89.648438 160.839844 C 88.621094 159.8125 87.742188 158.421875 87.671875 157.691406 C 87.671875 157.03125 87.671875 155.785156 87.742188 154.980469 C 87.816406 154.175781 88.695312 152.78125 89.722656 151.832031 C 91.480469 150.21875 91.773438 150.21875 133.226562 150.21875 Z M 133.226562 150.21875 " fill-opacity="1" fill-rule="evenodd"/></svg>