<svg xmlns="http://www.w3.org/2000/svg" xmlns:xlink="http://www.w3.org/1999/xlink" width="500" zoomAndPan="magnify" viewBox="0 0 375 374.999991" height="500" preserveAspectRatio="xMidYMid meet" version="1.0"><defs><g/></defs><rect x="-37.5" width="450" fill="#ffffff" y="-37.499999" height="449.999989" fill-opacity="1"/><rect x="-37.5" width="450" fill="#ffffff" y="-37.499999" height="449.999989" fill-opacity="1"/><path fill="#001b42" d="M 152.511719 16.8125 C 163.335938 15.09375 173.667969 22.226562 175.816406 33.074219 C 180.089844 54.53125 193.277344 63.339844 214.738281 59.085938 C 225.863281 56.875 236.667969 64.089844 238.878906 75.21875 L 238.878906 75.261719 C 241.070312 86.34375 233.851562 97.148438 222.75 99.339844 L 222.707031 99.359375 C 211.601562 101.53125 200.816406 94.3125 198.605469 83.207031 C 194.351562 61.769531 181.164062 52.941406 159.683594 57.21875 C 148.621094 59.410156 137.753906 52.148438 135.5625 41.085938 C 134.488281 35.714844 135.625 30.175781 138.65625 25.621094 C 141.296875 21.710938 145.269531 18.683594 150.082031 17.328125 L 152.511719 16.8125 " fill-opacity="1" fill-rule="evenodd"/><path fill="#001b42" d="M 220.578125 34.898438 C 216.023438 41.710938 206.808594 43.535156 200 38.980469 C 193.191406 34.425781 191.34375 25.210938 195.898438 18.402344 C 200.453125 11.59375 209.667969 9.769531 216.476562 14.300781 C 223.285156 18.855469 225.132812 28.070312 220.578125 34.898438 " fill-opacity="1" fill-rule="evenodd"/><path fill="#001b42" d="M 283.558594 42.332031 C 292.429688 48.777344 294.683594 61.125 288.539062 70.320312 C 276.382812 88.511719 279.496094 104.085938 297.667969 116.222656 C 307.097656 122.535156 309.632812 135.273438 303.339844 144.703125 L 303.320312 144.746094 C 297.003906 154.132812 284.289062 156.648438 274.878906 150.375 L 274.835938 150.332031 C 265.429688 144.039062 262.914062 131.300781 269.207031 121.894531 C 281.367188 103.699219 278.25 88.148438 260.078125 75.992188 C 250.695312 69.71875 248.136719 56.894531 254.410156 47.507812 C 257.460938 42.953125 262.183594 39.839844 267.535156 38.789062 C 272.171875 37.863281 277.113281 38.550781 281.496094 41 L 283.558594 42.332031 " fill-opacity="1" fill-rule="evenodd"/><path fill="#001b42" d="M 318.914062 103.25 C 310.878906 104.859375 303.0625 99.640625 301.472656 91.605469 C 299.859375 83.550781 305.078125 75.753906 313.113281 74.144531 C 321.148438 72.554688 328.964844 77.773438 330.578125 85.808594 C 332.164062 93.839844 326.945312 101.660156 318.914062 103.25 " fill-opacity="1" fill-rule="evenodd"/><path fill="#ff0000" d="M 358.179688 153.058594 C 359.894531 163.886719 352.765625 174.21875 341.917969 176.363281 C 320.460938 180.640625 311.632812 193.828125 315.90625 215.285156 C 318.117188 226.414062 310.902344 237.21875 299.773438 239.429688 L 299.730469 239.429688 C 288.625 241.621094 277.84375 234.402344 275.652344 223.296875 L 275.632812 223.253906 C 273.460938 212.148438 280.679688 201.367188 291.761719 199.15625 C 313.242188 194.878906 322.050781 181.714844 317.773438 160.234375 C 315.582031 149.171875 322.84375 138.304688 333.90625 136.113281 C 339.277344 135.039062 344.816406 136.175781 349.371094 139.207031 C 353.28125 141.847656 356.308594 145.820312 357.664062 150.632812 L 358.179688 153.058594 " fill-opacity="1" fill-rule="evenodd"/><path fill="#ff0000" d="M 340.09375 221.128906 C 333.28125 216.574219 331.457031 207.359375 336.011719 200.550781 C 340.5625 193.742188 349.777344 191.894531 356.589844 196.449219 C 363.398438 201.003906 365.222656 210.21875 360.691406 217.027344 C 356.136719 223.835938 346.921875 225.683594 340.09375 221.128906 " fill-opacity="1" fill-rule="evenodd"/><path fill="#ff0000" d="M 332.660156 284.105469 C 326.214844 292.976562 313.863281 295.234375 304.671875 289.089844 C 286.480469 276.933594 270.90625 280.046875 258.769531 298.21875 C 252.453125 307.648438 239.71875 310.183594 230.289062 303.890625 L 230.246094 303.867188 C 220.859375 297.554688 218.324219 284.835938 224.617188 275.429688 L 224.636719 275.386719 C 230.953125 265.976562 243.691406 263.464844 253.097656 269.757812 C 271.292969 281.917969 286.84375 278.824219 299 260.628906 C 305.273438 251.242188 318.097656 248.6875 327.460938 254.960938 C 332.035156 258.007812 335.152344 262.734375 336.203125 268.082031 C 337.128906 272.722656 336.441406 277.664062 333.992188 282.046875 L 332.660156 284.105469 " fill-opacity="1" fill-rule="evenodd"/><path fill="#ff0000" d="M 271.742188 319.460938 C 270.132812 311.429688 275.351562 303.609375 283.386719 302.019531 C 291.417969 300.410156 299.238281 305.628906 300.847656 313.664062 C 302.4375 321.695312 297.21875 329.515625 289.183594 331.125 C 281.152344 332.714844 273.332031 327.496094 271.742188 319.460938 " fill-opacity="1" fill-rule="evenodd"/><path fill="#001b42" d="M 221.933594 358.726562 C 211.105469 360.445312 200.773438 353.316406 198.625 342.46875 C 194.351562 321.007812 181.164062 312.179688 159.707031 316.457031 C 148.578125 318.667969 137.773438 311.449219 135.5625 300.324219 L 135.5625 300.28125 C 133.371094 289.175781 140.589844 278.394531 151.695312 276.203125 L 151.738281 276.179688 C 162.839844 274.011719 173.625 281.230469 175.835938 292.332031 C 180.089844 313.769531 193.277344 322.597656 214.738281 318.324219 C 225.796875 316.132812 236.6875 323.394531 238.878906 334.457031 C 239.953125 339.824219 238.816406 345.367188 235.785156 349.921875 C 233.144531 353.832031 229.171875 356.859375 224.359375 358.210938 L 221.933594 358.726562 " fill-opacity="1" fill-rule="evenodd"/><path fill="#001b42" d="M 153.863281 340.640625 C 158.417969 333.832031 167.632812 332.007812 174.441406 336.5625 C 181.25 341.113281 183.097656 350.328125 178.542969 357.136719 C 173.988281 363.945312 164.773438 365.773438 157.964844 361.242188 C 151.136719 356.6875 149.308594 347.472656 153.863281 340.640625 " fill-opacity="1" fill-rule="evenodd"/><path fill="#001b42" d="M 90.882812 333.210938 C 82.011719 326.765625 79.757812 314.414062 85.902344 305.222656 C 98.039062 287.027344 94.945312 271.457031 76.773438 259.320312 C 67.34375 253.003906 64.808594 240.265625 71.101562 230.835938 L 71.125 230.792969 C 77.4375 221.40625 90.152344 218.875 99.5625 225.167969 L 99.605469 225.1875 C 109.011719 231.503906 111.527344 244.242188 105.234375 253.648438 C 93.074219 271.84375 96.167969 287.394531 114.363281 299.550781 C 123.75 305.824219 126.304688 318.648438 120.03125 328.03125 C 116.980469 332.585938 112.257812 335.703125 106.910156 336.753906 C 102.269531 337.675781 97.328125 336.988281 92.945312 334.542969 L 90.882812 333.210938 " fill-opacity="1" fill-rule="evenodd"/><path fill="#001b42" d="M 55.527344 272.292969 C 63.5625 270.683594 71.382812 275.902344 72.96875 283.933594 C 74.582031 291.96875 69.363281 299.789062 61.308594 301.398438 C 53.296875 302.988281 45.476562 297.769531 43.867188 289.734375 C 42.277344 281.703125 47.496094 273.882812 55.527344 272.292969 " fill-opacity="1" fill-rule="evenodd"/><path fill="#ff0000" d="M 16.265625 222.480469 C 14.546875 211.65625 21.675781 201.324219 32.523438 199.175781 C 53.984375 194.902344 62.789062 181.714844 58.535156 160.253906 C 56.324219 149.128906 63.539062 138.324219 74.667969 136.113281 L 74.710938 136.113281 C 85.792969 133.921875 96.578125 141.136719 98.789062 152.242188 L 98.8125 152.285156 C 100.980469 163.390625 93.761719 174.175781 82.65625 176.386719 C 61.222656 180.640625 52.394531 193.828125 56.667969 215.285156 C 58.859375 226.347656 51.597656 237.238281 40.535156 239.429688 C 35.167969 240.503906 29.625 239.363281 25.070312 236.335938 C 21.160156 233.695312 18.15625 229.71875 16.78125 224.910156 L 16.265625 222.480469 " fill-opacity="1" fill-rule="evenodd"/><path fill="#ff0000" d="M 34.351562 154.414062 C 41.160156 158.964844 42.984375 168.179688 38.429688 174.992188 C 33.878906 181.800781 24.664062 183.648438 17.855469 179.09375 C 11.042969 174.539062 9.21875 165.324219 13.75 158.515625 C 18.304688 151.683594 27.519531 149.859375 34.351562 154.414062 " fill-opacity="1" fill-rule="evenodd"/><path fill="#ff0000" d="M 41.78125 91.433594 C 48.226562 82.5625 60.578125 80.308594 69.769531 86.453125 C 87.964844 98.585938 103.535156 95.492188 115.671875 77.324219 C 121.988281 67.894531 134.722656 65.359375 144.152344 71.652344 L 144.195312 71.671875 C 153.582031 77.988281 156.097656 90.703125 149.824219 100.113281 L 149.78125 100.15625 C 143.488281 109.5625 130.75 112.078125 121.34375 105.78125 C 103.148438 93.625 87.597656 96.71875 75.441406 114.910156 C 69.167969 124.296875 56.34375 126.855469 46.957031 120.582031 C 42.40625 117.53125 39.289062 112.808594 38.238281 107.457031 C 37.3125 102.820312 38 97.878906 40.449219 93.496094 L 41.78125 91.433594 " fill-opacity="1" fill-rule="evenodd"/><path fill="#ff0000" d="M 102.699219 56.078125 C 104.308594 64.113281 99.089844 71.929688 91.054688 73.519531 C 83 75.132812 75.203125 69.910156 73.59375 61.855469 C 72.003906 53.84375 77.222656 46.027344 85.257812 44.414062 C 93.289062 42.824219 101.109375 48.046875 102.699219 56.078125 " fill-opacity="1" fill-rule="evenodd"/><g fill="#ff0000" fill-opacity="1"><g transform="translate(123.846704, 225.320675)"><g><path d="M 73.734375 -77.265625 L 73.734375 0 L 54.921875 0 L 54.921875 -31.8125 L 25.640625 -31.8125 L 25.640625 0 L 6.828125 0 L 6.828125 -77.265625 L 25.640625 -77.265625 L 25.640625 -47 L 54.921875 -47 L 54.921875 -77.265625 Z M 73.734375 -77.265625 "/></g></g></g><g fill="#001b42" fill-opacity="1"><g transform="translate(199.021951, 225.320675)"><g><path d="M 57.125 -77.265625 L 57.125 -62.1875 L 25.640625 -62.1875 L 25.640625 -45.890625 L 49.203125 -45.890625 L 49.203125 -31.25 L 25.640625 -31.25 L 25.640625 0 L 6.828125 0 L 6.828125 -77.265625 Z M 57.125 -77.265625 "/></g></g></g></svg>