<svg xmlns="http://www.w3.org/2000/svg" xmlns:xlink="http://www.w3.org/1999/xlink" width="500" zoomAndPan="magnify" viewBox="0 0 375 225" height="300" preserveAspectRatio="xMidYMid meet" version="1.0"><defs><g/><clipPath id="86bb41ed84"><path d="M 198 32 L 338 32 L 338 193 L 198 193 Z M 198 32 " clip-rule="nonzero"/></clipPath><clipPath id="90e9ce0d4b"><path d="M 145.394531 88.808594 L 281.71875 -0.0898438 L 370.617188 136.238281 L 234.289062 225.132812 Z M 145.394531 88.808594 " clip-rule="nonzero"/></clipPath><clipPath id="0bdc763d4b"><path d="M 145.394531 88.808594 L 281.71875 -0.0898438 L 370.617188 136.238281 L 234.289062 225.132812 Z M 145.394531 88.808594 " clip-rule="nonzero"/></clipPath></defs><g clip-path="url(#86bb41ed84)"><g clip-path="url(#90e9ce0d4b)"><g clip-path="url(#0bdc763d4b)"><path fill="#001b42" d="M 220.660156 41.214844 C 220.371094 41.554688 219.957031 42.121094 219.753906 42.492188 C 219.546875 42.859375 219.273438 43.546875 219.152344 44.027344 C 219.027344 44.503906 218.914062 45.148438 218.917969 45.457031 C 218.910156 45.773438 218.941406 46.3125 218.980469 46.65625 C 219.019531 47.003906 219.152344 47.566406 219.269531 47.898438 C 219.386719 48.230469 219.59375 48.742188 219.738281 49.019531 C 219.875 49.304688 220.222656 49.796875 220.5 50.113281 C 220.765625 50.425781 221.234375 50.875 221.53125 51.105469 C 221.828125 51.347656 222.421875 51.703125 222.847656 51.898438 C 223.269531 52.09375 223.957031 52.328125 224.378906 52.402344 C 224.785156 52.472656 225.449219 52.523438 225.851562 52.511719 C 226.246094 52.488281 226.9375 52.386719 227.378906 52.28125 C 227.917969 52.15625 228.453125 51.945312 229.003906 51.632812 C 229.601562 51.292969 229.976562 51.011719 230.425781 50.570312 C 230.75 50.234375 231.246094 49.585938 231.527344 49.121094 C 231.921875 48.453125 232.085938 48.035156 232.269531 47.121094 C 232.460938 46.25 232.484375 45.75 232.402344 45.070312 C 232.335938 44.59375 232.195312 43.902344 232.078125 43.546875 C 231.949219 43.144531 231.667969 42.59375 231.304688 42.039062 C 230.871094 41.375 230.589844 41.039062 230.109375 40.644531 C 229.761719 40.359375 229.222656 39.96875 228.902344 39.78125 C 228.585938 39.601562 227.84375 39.339844 227.257812 39.199219 C 226.679688 39.054688 225.894531 38.957031 225.53125 38.972656 C 225.160156 38.976562 224.492188 39.078125 224.058594 39.1875 C 223.414062 39.347656 223.035156 39.507812 222.226562 39.996094 C 221.390625 40.503906 221.101562 40.730469 220.660156 41.214844 Z M 202.363281 55.53125 C 202.003906 55.816406 201.445312 56.328125 201.128906 56.683594 C 200.8125 57.039062 200.339844 57.683594 200.085938 58.132812 C 199.828125 58.574219 199.5 59.273438 199.363281 59.6875 C 199.214844 60.09375 199.042969 60.777344 198.949219 61.210938 C 198.867188 61.636719 198.796875 62.304688 198.792969 62.679688 C 198.789062 63.054688 198.847656 63.773438 198.921875 64.269531 C 198.988281 64.773438 199.140625 65.457031 199.246094 65.796875 C 199.363281 66.144531 199.746094 66.925781 200.136719 67.578125 C 200.667969 68.472656 200.964844 68.886719 201.453125 69.386719 C 201.808594 69.742188 202.398438 70.25 202.773438 70.515625 C 203.152344 70.777344 203.761719 71.136719 204.121094 71.3125 C 204.484375 71.484375 205.140625 71.726562 205.570312 71.855469 C 206.003906 71.984375 206.84375 72.132812 207.453125 72.171875 C 208.050781 72.214844 208.972656 72.195312 209.484375 72.125 C 210.003906 72.046875 210.800781 71.859375 211.261719 71.710938 C 211.933594 71.484375 212.355469 71.269531 213.285156 70.664062 C 214.0625 70.15625 214.636719 69.707031 214.976562 69.351562 C 215.269531 69.058594 215.921875 68.472656 216.429688 68.054688 C 216.980469 67.609375 217.976562 66.921875 218.871094 66.375 C 220.164062 65.59375 220.558594 65.398438 221.554688 65.058594 C 222.199219 64.851562 223.160156 64.609375 223.695312 64.535156 C 224.222656 64.449219 225.097656 64.402344 225.625 64.40625 C 226.164062 64.414062 227.09375 64.527344 227.703125 64.664062 C 228.308594 64.792969 229.292969 65.117188 229.894531 65.371094 C 230.492188 65.628906 231.410156 66.097656 231.914062 66.414062 C 232.425781 66.726562 233.210938 67.28125 233.65625 67.636719 C 234.109375 67.988281 235.035156 68.800781 235.71875 69.433594 C 236.390625 70.0625 237.226562 70.773438 237.574219 71.019531 C 237.914062 71.257812 238.546875 71.601562 238.996094 71.792969 C 239.4375 71.992188 240.125 72.226562 240.527344 72.332031 C 240.933594 72.441406 241.640625 72.550781 242.113281 72.589844 C 242.582031 72.621094 243.421875 72.597656 243.992188 72.519531 C 244.5625 72.445312 245.390625 72.265625 245.835938 72.113281 C 246.28125 71.960938 247.011719 71.632812 247.472656 71.382812 C 247.960938 71.101562 248.558594 70.6875 248.957031 70.328125 C 249.328125 70 249.863281 69.449219 250.140625 69.097656 C 250.417969 68.742188 250.796875 68.195312 250.972656 67.894531 C 251.148438 67.59375 251.425781 66.992188 251.585938 66.550781 C 251.753906 66.121094 251.941406 65.4375 252.023438 65.050781 C 252.089844 64.65625 252.171875 63.984375 252.183594 63.566406 C 252.207031 63.140625 252.164062 62.410156 252.105469 61.941406 C 252.039062 61.476562 251.855469 60.699219 251.703125 60.214844 C 251.464844 59.488281 251.28125 59.152344 250.617188 58.132812 C 249.980469 57.179688 249.671875 56.796875 249.164062 56.34375 C 248.820312 56.023438 248.144531 55.542969 247.6875 55.257812 C 247.21875 54.980469 246.613281 54.65625 246.320312 54.535156 C 246.023438 54.421875 245.414062 54.230469 244.957031 54.121094 C 244.5 54.007812 243.710938 53.902344 243.1875 53.882812 C 242.671875 53.871094 241.867188 53.914062 241.402344 53.980469 C 240.9375 54.046875 240.167969 54.238281 239.691406 54.402344 C 239.074219 54.617188 238.535156 54.878906 237.816406 55.339844 C 237.121094 55.792969 236.542969 56.242188 235.933594 56.828125 C 235.449219 57.289062 234.457031 58.125 233.722656 58.679688 C 232.570312 59.554688 232.230469 59.777344 231.082031 60.339844 C 230.109375 60.8125 229.421875 61.070312 228.492188 61.320312 C 227.777344 61.5 226.792969 61.667969 226.25 61.6875 C 225.71875 61.710938 224.859375 61.6875 224.351562 61.636719 C 223.828125 61.578125 222.984375 61.40625 222.472656 61.246094 C 221.949219 61.089844 221.195312 60.8125 220.78125 60.636719 C 220.375 60.453125 219.648438 60.058594 219.160156 59.765625 C 218.671875 59.476562 217.917969 58.949219 217.484375 58.625 C 217.054688 58.292969 216.066406 57.425781 215.296875 56.699219 C 214.316406 55.785156 213.628906 55.226562 213.039062 54.878906 C 212.582031 54.59375 211.964844 54.277344 211.675781 54.15625 C 211.375 54.039062 210.769531 53.851562 210.3125 53.738281 C 209.851562 53.628906 209.0625 53.523438 208.542969 53.503906 C 208.027344 53.492188 207.21875 53.53125 206.753906 53.601562 C 206.289062 53.667969 205.519531 53.859375 205.046875 54.03125 C 204.578125 54.199219 203.929688 54.484375 203.605469 54.671875 C 203.28125 54.859375 202.726562 55.246094 202.363281 55.53125 Z M 251.945312 35.109375 C 251.660156 35.355469 251.152344 35.875 250.804688 36.273438 C 250.46875 36.667969 250.082031 37.183594 249.933594 37.414062 C 249.800781 37.648438 249.527344 38.199219 249.339844 38.632812 C 249.152344 39.066406 248.914062 39.730469 248.820312 40.101562 C 248.726562 40.476562 248.632812 41.132812 248.601562 41.5625 C 248.5625 41.996094 248.582031 42.765625 248.632812 43.28125 C 248.679688 43.796875 248.824219 44.546875 248.933594 44.945312 C 249.054688 45.339844 249.332031 46.027344 249.546875 46.472656 C 249.757812 46.929688 250.144531 47.5625 250.441406 47.9375 C 250.714844 48.304688 251.171875 48.816406 251.445312 49.082031 C 251.71875 49.351562 252.261719 49.78125 252.632812 50.046875 C 253.015625 50.308594 253.714844 50.695312 254.175781 50.90625 C 254.644531 51.109375 255.496094 51.371094 256.074219 51.492188 C 256.644531 51.605469 257.632812 51.714844 258.277344 51.730469 C 258.90625 51.742188 260.078125 51.847656 260.871094 51.941406 C 261.664062 52.03125 262.8125 52.265625 263.425781 52.449219 C 264.03125 52.636719 264.847656 52.914062 265.226562 53.074219 C 265.613281 53.230469 266.238281 53.542969 266.625 53.777344 C 267.023438 54 267.636719 54.410156 267.992188 54.6875 C 268.355469 54.957031 268.929688 55.476562 269.265625 55.84375 C 269.601562 56.207031 270.125 56.894531 270.4375 57.375 C 270.75 57.855469 271.183594 58.652344 271.398438 59.132812 C 271.621094 59.621094 271.929688 60.539062 272.101562 61.160156 C 272.273438 61.789062 272.5 62.972656 272.589844 63.796875 C 272.6875 64.613281 272.777344 65.796875 272.777344 66.40625 C 272.785156 67.007812 272.847656 67.925781 272.914062 68.425781 C 272.980469 68.929688 273.152344 69.6875 273.289062 70.105469 C 273.425781 70.527344 273.742188 71.21875 273.972656 71.648438 C 274.222656 72.128906 274.628906 72.710938 275.011719 73.144531 C 275.347656 73.546875 275.871094 74.0625 276.167969 74.3125 C 276.46875 74.566406 277.027344 74.945312 277.417969 75.179688 C 277.804688 75.410156 278.4375 75.714844 278.835938 75.867188 C 279.222656 76.023438 279.949219 76.222656 280.441406 76.3125 C 280.941406 76.394531 281.675781 76.472656 282.082031 76.46875 C 282.496094 76.472656 283.195312 76.425781 283.625 76.359375 C 284.058594 76.296875 284.828125 76.109375 285.332031 75.929688 C 286.042969 75.6875 286.480469 75.464844 287.285156 74.925781 C 287.941406 74.5 288.515625 74.050781 288.828125 73.710938 C 289.097656 73.421875 289.550781 72.878906 289.820312 72.492188 C 290.105469 72.105469 290.519531 71.390625 290.738281 70.886719 C 290.957031 70.386719 291.222656 69.613281 291.335938 69.15625 C 291.4375 68.703125 291.527344 67.890625 291.53125 67.339844 C 291.539062 66.789062 291.496094 66.035156 291.429688 65.667969 C 291.375 65.292969 291.175781 64.554688 290.996094 64.027344 C 290.738281 63.273438 290.515625 62.835938 289.992188 62.035156 C 289.628906 61.476562 289.105469 60.789062 288.820312 60.5 C 288.539062 60.226562 288.039062 59.796875 287.695312 59.535156 C 287.351562 59.273438 286.6875 58.886719 286.214844 58.660156 C 285.738281 58.4375 284.949219 58.144531 284.441406 58.015625 C 283.9375 57.886719 282.84375 57.753906 282.011719 57.714844 C 281.175781 57.675781 279.976562 57.585938 279.347656 57.515625 C 278.714844 57.441406 277.773438 57.273438 277.253906 57.140625 C 276.734375 57.007812 276.003906 56.789062 275.625 56.664062 C 275.253906 56.53125 274.511719 56.195312 273.980469 55.933594 C 273.460938 55.664062 272.707031 55.199219 272.320312 54.90625 C 271.929688 54.613281 271.335938 54.105469 271.007812 53.773438 C 270.617188 53.382812 270.144531 52.773438 269.667969 52.039062 C 269.144531 51.238281 268.816406 50.621094 268.542969 49.917969 C 268.328125 49.375 268.039062 48.496094 267.917969 47.964844 C 267.789062 47.441406 267.605469 46.441406 267.511719 45.746094 C 267.429688 45.042969 267.351562 43.878906 267.335938 43.128906 C 267.320312 42.382812 267.277344 41.515625 267.246094 41.203125 C 267.207031 40.878906 267.078125 40.242188 266.949219 39.78125 C 266.824219 39.316406 266.523438 38.554688 266.289062 38.101562 C 266.039062 37.617188 265.613281 36.949219 265.277344 36.527344 C 264.953125 36.128906 264.484375 35.601562 264.226562 35.371094 C 263.980469 35.148438 263.515625 34.78125 263.195312 34.554688 C 262.878906 34.335938 262.242188 33.984375 261.78125 33.773438 C 261.320312 33.566406 260.457031 33.285156 259.867188 33.160156 C 259.269531 33.027344 258.371094 32.945312 257.867188 32.949219 C 257.359375 32.957031 256.550781 33.050781 256.070312 33.152344 C 255.585938 33.246094 254.90625 33.441406 254.550781 33.582031 C 254.199219 33.726562 253.585938 34.027344 253.1875 34.25 C 252.792969 34.484375 252.230469 34.859375 251.945312 35.109375 Z M 278.035156 37.410156 C 277.921875 37.503906 277.648438 37.808594 277.40625 38.066406 C 277.171875 38.332031 276.769531 38.878906 276.527344 39.285156 C 276.195312 39.847656 276.015625 40.3125 275.839844 41.1875 C 275.671875 41.953125 275.613281 42.613281 275.671875 43.15625 C 275.71875 43.609375 275.875 44.34375 276.019531 44.792969 C 276.183594 45.273438 276.476562 45.875 276.726562 46.257812 C 276.960938 46.617188 277.390625 47.140625 277.679688 47.4375 C 277.972656 47.730469 278.5625 48.179688 279.003906 48.4375 C 279.472656 48.714844 280.167969 49.003906 280.675781 49.136719 C 281.152344 49.257812 281.941406 49.363281 282.417969 49.367188 C 282.941406 49.371094 283.675781 49.277344 284.242188 49.121094 C 285.054688 48.898438 285.335938 48.777344 286.113281 48.273438 C 286.746094 47.859375 287.148438 47.519531 287.441406 47.167969 C 287.671875 46.894531 288.066406 46.339844 288.3125 45.933594 C 288.640625 45.371094 288.816406 44.882812 288.996094 44.03125 C 289.148438 43.347656 289.214844 42.597656 289.175781 42.175781 C 289.144531 41.785156 289.046875 41.179688 288.957031 40.828125 C 288.855469 40.386719 288.625 39.878906 288.226562 39.195312 C 287.789062 38.449219 287.519531 38.089844 287.136719 37.730469 C 286.851562 37.46875 286.246094 37.035156 285.777344 36.753906 C 285.125 36.359375 284.695312 36.195312 283.84375 36.015625 C 283.214844 35.890625 282.421875 35.8125 281.984375 35.851562 C 281.558594 35.878906 280.878906 36 280.484375 36.121094 C 280.085938 36.230469 279.414062 36.535156 278.988281 36.773438 C 278.566406 37.023438 278.140625 37.304688 278.035156 37.410156 Z M 301.179688 56.203125 C 300.859375 56.511719 300.363281 57.085938 300.085938 57.476562 C 299.8125 57.855469 299.398438 58.570312 299.167969 59.058594 C 298.90625 59.613281 298.65625 60.410156 298.5 61.195312 C 298.367188 61.886719 298.273438 62.832031 298.296875 63.300781 C 298.316406 63.773438 298.40625 64.519531 298.5 64.96875 C 298.59375 65.417969 298.832031 66.179688 299.039062 66.667969 C 299.292969 67.285156 299.582031 67.804688 300.011719 68.390625 C 300.351562 68.851562 300.996094 69.613281 301.433594 70.074219 C 302 70.660156 302.589844 71.390625 303.382812 72.527344 C 304.285156 73.839844 304.597656 74.355469 304.980469 75.210938 C 305.242188 75.785156 305.558594 76.671875 305.695312 77.164062 C 305.832031 77.660156 305.980469 78.398438 306.027344 78.8125 C 306.074219 79.230469 306.109375 79.949219 306.105469 80.4375 C 306.109375 80.917969 305.992188 81.828125 305.859375 82.460938 C 305.730469 83.101562 305.425781 84.082031 305.179688 84.65625 C 304.929688 85.226562 304.507812 86.0625 304.226562 86.53125 C 303.949219 86.996094 303.429688 87.78125 303.058594 88.261719 C 302.695312 88.746094 301.800781 89.777344 301.078125 90.558594 C 300.324219 91.359375 299.578125 92.253906 299.339844 92.648438 C 299.109375 93.019531 298.800781 93.59375 298.675781 93.914062 C 298.539062 94.238281 298.332031 94.820312 298.21875 95.214844 C 298.105469 95.613281 297.972656 96.285156 297.941406 96.714844 C 297.898438 97.140625 297.898438 97.886719 297.929688 98.371094 C 297.972656 98.855469 298.074219 99.546875 298.167969 99.894531 C 298.25 100.25 298.449219 100.867188 298.609375 101.257812 C 298.761719 101.644531 299.144531 102.347656 299.453125 102.820312 C 299.808594 103.367188 300.230469 103.878906 300.667969 104.285156 C 301.03125 104.632812 301.597656 105.097656 301.921875 105.332031 C 302.257812 105.5625 302.859375 105.914062 303.261719 106.109375 C 303.671875 106.300781 304.410156 106.578125 304.902344 106.703125 C 305.402344 106.839844 306.183594 106.972656 306.652344 107.003906 C 307.117188 107.035156 307.90625 107.003906 308.410156 106.9375 C 308.917969 106.878906 309.675781 106.710938 310.09375 106.570312 C 310.519531 106.445312 311.203125 106.160156 311.609375 105.945312 C 312.015625 105.730469 312.667969 105.316406 313.054688 105.015625 C 313.441406 104.714844 313.992188 104.191406 314.28125 103.855469 C 314.570312 103.515625 315.015625 102.902344 315.265625 102.503906 C 315.515625 102.105469 315.855469 101.425781 316.015625 100.984375 C 316.175781 100.546875 316.367188 99.851562 316.445312 99.4375 C 316.523438 99.027344 316.601562 98.457031 316.621094 98.167969 C 316.644531 97.878906 316.640625 97.300781 316.601562 96.878906 C 316.570312 96.449219 316.464844 95.773438 316.355469 95.359375 C 316.25 94.945312 316.042969 94.308594 315.882812 93.929688 C 315.703125 93.5 315.316406 92.871094 314.867188 92.234375 C 314.464844 91.675781 313.757812 90.820312 313.285156 90.347656 C 312.585938 89.613281 312.25 89.171875 311.238281 87.644531 C 310.199219 86.050781 309.992188 85.675781 309.640625 84.777344 C 309.425781 84.195312 309.15625 83.289062 309.046875 82.742188 C 308.9375 82.191406 308.84375 81.398438 308.820312 80.964844 C 308.808594 80.527344 308.820312 79.859375 308.851562 79.46875 C 308.878906 79.074219 309.027344 78.296875 309.164062 77.722656 C 309.304688 77.160156 309.59375 76.300781 309.796875 75.832031 C 309.992188 75.355469 310.433594 74.523438 310.765625 73.984375 C 311.089844 73.4375 311.664062 72.605469 312.035156 72.125 C 312.40625 71.648438 313.175781 70.773438 313.75 70.1875 C 314.320312 69.59375 314.957031 68.890625 315.15625 68.625 C 315.347656 68.351562 315.644531 67.910156 315.808594 67.628906 C 315.964844 67.351562 316.222656 66.796875 316.378906 66.410156 C 316.539062 66.023438 316.742188 65.292969 316.839844 64.792969 C 316.945312 64.289062 317.023438 63.570312 317.035156 63.1875 C 317.039062 62.8125 316.988281 62.089844 316.914062 61.59375 C 316.847656 61.089844 316.699219 60.402344 316.589844 60.066406 C 316.480469 59.726562 316.085938 58.929688 315.703125 58.285156 C 315.265625 57.539062 314.847656 56.941406 314.542969 56.621094 C 314.277344 56.347656 313.824219 55.921875 313.515625 55.675781 C 313.214844 55.421875 312.695312 55.066406 312.359375 54.875 C 312.035156 54.679688 311.523438 54.429688 311.230469 54.308594 C 310.941406 54.1875 310.277344 53.984375 309.746094 53.859375 C 309.21875 53.734375 308.453125 53.625 308.039062 53.621094 C 307.625 53.617188 306.875 53.660156 306.371094 53.726562 C 305.867188 53.792969 305.09375 53.976562 304.640625 54.121094 C 304.136719 54.300781 303.4375 54.632812 302.804688 55.019531 C 302.125 55.425781 301.578125 55.820312 301.179688 56.203125 Z M 320.109375 75.554688 C 320.023438 75.632812 319.753906 75.945312 319.507812 76.253906 C 319.257812 76.554688 318.898438 77.125 318.683594 77.523438 C 318.480469 77.917969 318.25 78.589844 318.164062 79.007812 C 318.058594 79.421875 317.988281 80.078125 317.996094 80.445312 C 318 80.816406 318.0625 81.445312 318.144531 81.839844 C 318.226562 82.230469 318.40625 82.8125 318.542969 83.132812 C 318.675781 83.453125 318.941406 83.953125 319.128906 84.242188 C 319.316406 84.527344 319.710938 85.003906 319.996094 85.289062 C 320.296875 85.578125 320.832031 85.996094 321.210938 86.234375 C 321.574219 86.46875 322.203125 86.765625 322.597656 86.894531 C 322.992188 87.023438 323.621094 87.171875 324.003906 87.222656 C 324.390625 87.265625 325.097656 87.265625 325.582031 87.207031 C 326.0625 87.144531 326.738281 87 327.082031 86.878906 C 327.433594 86.75 328.046875 86.433594 328.457031 86.167969 C 328.925781 85.859375 329.410156 85.457031 329.78125 85.054688 C 330.09375 84.699219 330.53125 84.09375 330.75 83.703125 C 330.992188 83.257812 331.238281 82.566406 331.375 81.902344 C 331.523438 81.199219 331.582031 80.527344 331.535156 80 C 331.488281 79.542969 331.335938 78.8125 331.191406 78.363281 C 331.019531 77.851562 330.726562 77.273438 330.425781 76.808594 C 330.140625 76.375 329.699219 75.84375 329.351562 75.523438 C 329.03125 75.222656 328.511719 74.828125 328.210938 74.652344 C 327.910156 74.476562 327.320312 74.21875 326.914062 74.070312 C 326.515625 73.933594 325.847656 73.785156 325.449219 73.746094 C 325.050781 73.710938 324.410156 73.71875 324.027344 73.757812 C 323.640625 73.796875 322.984375 73.949219 322.570312 74.097656 C 322.070312 74.261719 321.539062 74.53125 321.03125 74.878906 C 320.601562 75.167969 320.1875 75.464844 320.109375 75.554688 Z M 227.078125 151.417969 C 226.84375 151.632812 226.398438 152.148438 226.078125 152.554688 C 225.757812 152.960938 225.3125 153.683594 225.078125 154.160156 C 224.820312 154.703125 224.550781 155.523438 224.378906 156.332031 C 224.191406 157.222656 224.128906 157.921875 224.171875 158.578125 C 224.203125 159.105469 224.289062 159.804688 224.355469 160.136719 C 224.417969 160.464844 224.566406 161.015625 224.675781 161.351562 C 224.785156 161.691406 225.15625 162.453125 225.507812 163.046875 C 226.011719 163.898438 226.292969 164.273438 226.851562 164.839844 C 227.242188 165.230469 227.898438 165.785156 228.316406 166.058594 C 228.730469 166.335938 229.375 166.695312 229.753906 166.859375 C 230.132812 167.019531 230.875 167.257812 231.398438 167.375 C 231.925781 167.503906 232.871094 167.621094 233.488281 167.628906 C 234.105469 167.648438 235.253906 167.730469 236.027344 167.808594 C 236.800781 167.890625 237.832031 168.0625 238.324219 168.175781 C 238.8125 168.292969 239.679688 168.558594 240.253906 168.769531 C 240.824219 168.980469 241.777344 169.449219 242.371094 169.808594 C 242.964844 170.167969 243.730469 170.710938 244.058594 171.003906 C 244.394531 171.292969 244.976562 171.921875 245.367188 172.386719 C 245.90625 173.039062 246.191406 173.476562 246.589844 174.257812 C 246.878906 174.816406 247.25 175.667969 247.410156 176.144531 C 247.574219 176.625 247.8125 177.5625 247.945312 178.21875 C 248.074219 178.878906 248.21875 179.878906 248.265625 180.429688 C 248.308594 180.988281 248.359375 181.847656 248.367188 182.351562 C 248.371094 182.859375 248.421875 183.65625 248.476562 184.121094 C 248.523438 184.574219 248.6875 185.359375 248.835938 185.871094 C 249.070312 186.6875 249.179688 186.914062 249.976562 188.132812 C 250.769531 189.355469 250.933594 189.546875 251.589844 190.097656 C 251.996094 190.429688 252.648438 190.898438 253.050781 191.132812 C 253.445312 191.359375 254.164062 191.699219 254.632812 191.867188 C 255.101562 192.03125 255.847656 192.226562 256.285156 192.289062 C 256.734375 192.347656 257.367188 192.40625 257.714844 192.402344 C 258.054688 192.414062 258.691406 192.359375 259.132812 192.296875 C 259.574219 192.230469 260.3125 192.046875 260.789062 191.886719 C 261.269531 191.722656 262 191.394531 262.425781 191.15625 C 262.851562 190.914062 263.496094 190.457031 263.871094 190.136719 C 264.242188 189.808594 264.8125 189.199219 265.160156 188.777344 C 265.488281 188.351562 265.957031 187.621094 266.183594 187.152344 C 266.414062 186.679688 266.710938 185.863281 266.847656 185.328125 C 266.984375 184.792969 267.109375 184.015625 267.121094 183.597656 C 267.144531 183.171875 267.105469 182.453125 267.058594 181.996094 C 267.007812 181.535156 266.84375 180.75 266.699219 180.246094 C 266.457031 179.4375 266.328125 179.183594 265.582031 178.019531 C 264.917969 177 264.609375 176.605469 264.175781 176.203125 C 263.863281 175.933594 263.363281 175.53125 263.0625 175.316406 C 262.761719 175.101562 262.164062 174.757812 261.75 174.558594 C 261.332031 174.359375 260.511719 174.070312 259.941406 173.9375 C 259.359375 173.804688 258.238281 173.667969 257.453125 173.644531 C 256.65625 173.621094 255.492188 173.535156 254.863281 173.460938 C 254.230469 173.386719 253.320312 173.210938 252.84375 173.089844 C 252.355469 172.972656 251.527344 172.707031 250.988281 172.507812 C 250.449219 172.3125 249.507812 171.859375 248.914062 171.5 C 248.292969 171.136719 247.464844 170.535156 247.015625 170.132812 C 246.316406 169.496094 246.113281 169.242188 245.3125 168.015625 C 244.664062 167.019531 244.320312 166.398438 244.125 165.871094 C 243.96875 165.460938 243.714844 164.671875 243.570312 164.121094 C 243.421875 163.574219 243.21875 162.5 243.121094 161.742188 C 243.027344 160.984375 242.945312 159.871094 242.929688 159.257812 C 242.925781 158.640625 242.851562 157.632812 242.765625 157.007812 C 242.691406 156.375 242.511719 155.570312 242.394531 155.199219 C 242.269531 154.835938 241.90625 154.089844 241.59375 153.550781 C 241.253906 152.976562 240.800781 152.316406 240.488281 151.972656 C 240.195312 151.65625 239.648438 151.140625 239.269531 150.84375 C 238.886719 150.546875 238.191406 150.105469 237.738281 149.867188 C 237.269531 149.625 236.425781 149.320312 235.847656 149.175781 C 235.269531 149.03125 234.339844 148.902344 233.796875 148.886719 C 233.257812 148.878906 232.484375 148.910156 232.09375 148.980469 C 231.710938 149.042969 231.054688 149.195312 230.636719 149.320312 C 230.097656 149.484375 229.5625 149.746094 228.699219 150.285156 C 228.042969 150.6875 227.304688 151.195312 227.078125 151.417969 Z M 321.484375 106.234375 C 321.113281 106.613281 320.574219 107.3125 320.269531 107.796875 C 319.980469 108.285156 319.617188 109.007812 319.457031 109.410156 C 319.304688 109.804688 319.121094 110.398438 319.042969 110.734375 C 318.957031 111.0625 318.847656 112.226562 318.800781 113.3125 C 318.734375 114.511719 318.570312 115.933594 318.382812 116.902344 C 318.207031 117.773438 317.890625 118.960938 317.671875 119.527344 C 317.457031 120.089844 317.015625 120.996094 316.691406 121.542969 C 316.367188 122.09375 315.8125 122.863281 315.457031 123.269531 C 315.101562 123.675781 314.492188 124.269531 314.09375 124.605469 C 313.691406 124.941406 313.003906 125.414062 312.550781 125.671875 C 312.097656 125.929688 311.335938 126.277344 310.84375 126.476562 C 310.34375 126.664062 309.515625 126.917969 308.984375 127.054688 C 308.445312 127.183594 307.417969 127.355469 306.691406 127.445312 C 305.964844 127.53125 304.835938 127.609375 304.191406 127.609375 C 303.550781 127.617188 302.707031 127.65625 302.328125 127.707031 C 301.945312 127.746094 301.230469 127.886719 300.738281 128.023438 C 300.097656 128.203125 299.574219 128.433594 298.855469 128.851562 C 298.289062 129.183594 297.585938 129.667969 297.234375 129.984375 C 296.886719 130.285156 296.390625 130.808594 296.125 131.140625 C 295.859375 131.476562 295.503906 131.996094 295.328125 132.296875 C 295.152344 132.597656 294.886719 133.144531 294.742188 133.496094 C 294.601562 133.851562 294.40625 134.425781 294.316406 134.78125 C 294.234375 135.132812 294.125 135.75 294.085938 136.148438 C 294.046875 136.546875 294.042969 137.21875 294.070312 137.648438 C 294.101562 138.074219 294.234375 138.847656 294.367188 139.378906 C 294.511719 139.90625 294.820312 140.734375 295.054688 141.230469 C 295.382812 141.882812 295.667969 142.320312 296.132812 142.882812 C 296.480469 143.304688 297.03125 143.878906 297.351562 144.140625 C 297.660156 144.410156 298.292969 144.84375 298.734375 145.101562 C 299.175781 145.359375 299.78125 145.660156 300.078125 145.777344 C 300.378906 145.890625 301.121094 146.078125 301.730469 146.191406 C 302.351562 146.304688 303.277344 146.375 303.800781 146.339844 C 304.332031 146.316406 305.097656 146.214844 305.519531 146.117188 C 305.9375 146.015625 306.640625 145.78125 307.101562 145.59375 C 307.5625 145.402344 308.253906 145.039062 308.648438 144.785156 C 309.046875 144.523438 309.636719 144.050781 309.949219 143.734375 C 310.273438 143.414062 310.761719 142.847656 311.027344 142.472656 C 311.292969 142.101562 311.6875 141.449219 311.886719 141.03125 C 312.089844 140.613281 312.375 139.757812 312.519531 139.140625 C 312.664062 138.527344 312.796875 137.570312 312.804688 137.03125 C 312.816406 136.476562 312.871094 135.609375 312.917969 135.105469 C 312.964844 134.605469 313.101562 133.621094 313.234375 132.925781 C 313.371094 132.242188 313.636719 131.222656 313.828125 130.675781 C 314.019531 130.128906 314.285156 129.433594 314.433594 129.125 C 314.566406 128.816406 314.867188 128.285156 315.089844 127.941406 C 315.3125 127.597656 315.734375 127.011719 316.039062 126.636719 C 316.34375 126.265625 316.953125 125.660156 317.398438 125.292969 C 317.847656 124.898438 318.550781 124.417969 319.011719 124.152344 C 319.464844 123.894531 320.183594 123.550781 320.621094 123.378906 C 321.054688 123.207031 321.90625 122.9375 322.527344 122.78125 C 323.140625 122.617188 324.1875 122.429688 324.855469 122.355469 C 325.519531 122.269531 326.804688 122.179688 327.703125 122.148438 C 328.597656 122.113281 329.710938 122.007812 330.160156 121.914062 C 330.605469 121.820312 331.414062 121.554688 331.949219 121.328125 C 332.660156 121.027344 333.148438 120.746094 333.761719 120.296875 C 334.222656 119.960938 334.84375 119.40625 335.136719 119.078125 C 335.433594 118.75 335.84375 118.21875 336.046875 117.902344 C 336.253906 117.589844 336.582031 116.96875 336.769531 116.535156 C 336.960938 116.101562 337.226562 115.34375 337.335938 114.851562 C 337.449219 114.355469 337.558594 113.613281 337.574219 113.191406 C 337.59375 112.769531 337.546875 111.992188 337.472656 111.457031 C 337.398438 110.921875 337.207031 110.101562 337.039062 109.628906 C 336.832031 109.03125 336.554688 108.46875 336.121094 107.804688 C 335.789062 107.277344 335.308594 106.636719 335.066406 106.382812 C 334.828125 106.128906 334.363281 105.699219 334.035156 105.441406 C 333.703125 105.183594 333.171875 104.824219 332.871094 104.648438 C 332.570312 104.472656 331.996094 104.199219 331.605469 104.042969 C 331.210938 103.894531 330.449219 103.679688 329.921875 103.578125 C 329.386719 103.480469 328.699219 103.394531 328.386719 103.386719 C 328.070312 103.382812 327.484375 103.417969 327.070312 103.464844 C 326.652344 103.511719 325.9375 103.65625 325.480469 103.792969 C 324.808594 103.980469 324.390625 104.179688 323.398438 104.789062 C 322.390625 105.410156 322.03125 105.679688 321.484375 106.234375 Z M 228.367188 178.058594 C 228.117188 178.308594 227.699219 178.902344 227.421875 179.371094 C 227.050781 180.023438 226.863281 180.515625 226.679688 181.394531 C 226.484375 182.316406 226.464844 182.761719 226.558594 183.535156 C 226.632812 184.105469 226.824219 184.851562 227.019531 185.34375 C 227.253906 185.914062 227.507812 186.378906 227.832031 186.800781 C 228.09375 187.140625 228.613281 187.671875 228.984375 187.976562 C 229.355469 188.28125 229.96875 188.6875 230.351562 188.871094 C 230.734375 189.058594 231.480469 189.289062 232.03125 189.390625 C 232.648438 189.5 233.367188 189.539062 233.945312 189.472656 C 234.460938 189.421875 235.207031 189.257812 235.601562 189.113281 C 236 188.964844 236.632812 188.640625 236.996094 188.402344 C 237.371094 188.15625 237.890625 187.730469 238.152344 187.449219 C 238.421875 187.175781 238.863281 186.574219 239.140625 186.109375 C 239.535156 185.453125 239.699219 185.023438 239.871094 184.179688 C 240.027344 183.40625 240.070312 182.808594 240.003906 182.15625 C 239.953125 181.640625 239.8125 180.925781 239.683594 180.5625 C 239.558594 180.160156 239.253906 179.578125 238.925781 179.070312 C 238.59375 178.566406 238.191406 178.058594 237.867188 177.773438 C 237.585938 177.511719 237.101562 177.15625 236.800781 176.980469 C 236.5 176.800781 236.019531 176.558594 235.730469 176.4375 C 235.4375 176.316406 234.835938 176.152344 234.386719 176.070312 C 233.925781 175.996094 233.136719 175.964844 232.628906 176.023438 C 232.113281 176.074219 231.367188 176.238281 230.964844 176.386719 C 230.574219 176.53125 229.925781 176.867188 229.53125 177.136719 C 229.136719 177.394531 228.613281 177.808594 228.367188 178.058594 Z M 266.855469 154.910156 C 266.570312 155.15625 266.105469 155.625 265.820312 155.945312 C 265.542969 156.265625 265.078125 156.925781 264.789062 157.414062 C 264.507812 157.894531 264.132812 158.710938 263.957031 159.222656 C 263.785156 159.742188 263.597656 160.636719 263.550781 161.210938 C 263.496094 161.792969 263.488281 162.558594 263.519531 162.910156 C 263.546875 163.261719 263.683594 163.984375 263.820312 164.515625 C 263.953125 165.046875 264.269531 165.875 264.511719 166.359375 C 264.757812 166.847656 265.148438 167.484375 265.378906 167.78125 C 265.617188 168.074219 266.121094 168.601562 266.519531 168.964844 C 266.910156 169.332031 267.511719 169.796875 267.855469 170.019531 C 268.199219 170.242188 268.785156 170.550781 269.175781 170.710938 C 269.554688 170.871094 270.191406 171.089844 270.597656 171.195312 C 271.003906 171.304688 271.707031 171.417969 272.183594 171.457031 C 272.648438 171.488281 273.484375 171.453125 274.054688 171.375 C 274.628906 171.300781 275.476562 171.121094 275.953125 170.957031 C 276.632812 170.738281 277.0625 170.519531 277.914062 169.964844 C 278.570312 169.539062 279.242188 169.011719 279.609375 168.660156 C 279.941406 168.332031 280.617188 167.730469 281.105469 167.335938 C 281.636719 166.890625 282.617188 166.226562 283.550781 165.65625 C 284.898438 164.828125 285.257812 164.65625 286.269531 164.304688 C 286.917969 164.09375 287.875 163.855469 288.40625 163.769531 C 288.941406 163.695312 289.824219 163.640625 290.378906 163.652344 C 290.921875 163.667969 291.859375 163.789062 292.449219 163.914062 C 293.03125 164.042969 293.960938 164.332031 294.507812 164.558594 C 295.046875 164.792969 295.808594 165.164062 296.191406 165.386719 C 296.582031 165.605469 297.261719 166.054688 297.71875 166.378906 C 298.175781 166.699219 299.300781 167.644531 300.214844 168.472656 C 301.128906 169.304688 302.136719 170.164062 302.457031 170.367188 C 302.773438 170.570312 303.3125 170.863281 303.648438 171.015625 C 303.992188 171.164062 304.585938 171.386719 304.984375 171.5 C 305.371094 171.621094 306.144531 171.761719 306.691406 171.816406 C 307.230469 171.859375 308.140625 171.851562 308.707031 171.765625 C 309.28125 171.691406 310.125 171.5 310.601562 171.339844 C 311.257812 171.121094 311.734375 170.886719 312.519531 170.375 C 313.101562 170.007812 313.804688 169.472656 314.101562 169.179688 C 314.394531 168.890625 314.890625 168.292969 315.210938 167.835938 C 315.53125 167.378906 315.941406 166.652344 316.132812 166.203125 C 316.332031 165.765625 316.578125 164.871094 316.707031 164.226562 C 316.839844 163.570312 316.917969 162.648438 316.902344 162.1875 C 316.886719 161.726562 316.804688 161.046875 316.730469 160.683594 C 316.65625 160.324219 316.476562 159.683594 316.339844 159.265625 C 316.136719 158.6875 315.898438 158.222656 315.304688 157.332031 C 314.699219 156.421875 314.382812 156.035156 313.890625 155.585938 C 313.535156 155.269531 312.796875 154.746094 312.25 154.417969 C 311.679688 154.082031 310.855469 153.710938 310.347656 153.558594 C 309.847656 153.402344 309.054688 153.234375 308.582031 153.195312 C 308.105469 153.148438 307.34375 153.121094 306.878906 153.152344 C 306.414062 153.183594 305.585938 153.324219 305.035156 153.472656 C 304.363281 153.644531 303.722656 153.898438 303.109375 154.230469 C 302.578125 154.515625 301.949219 154.925781 301.628906 155.195312 C 301.316406 155.460938 300.777344 155.949219 300.421875 156.296875 C 300.054688 156.632812 299.261719 157.300781 298.652344 157.773438 C 298.039062 158.246094 297.144531 158.851562 296.667969 159.113281 C 296.199219 159.382812 295.460938 159.753906 295.03125 159.933594 C 294.601562 160.113281 293.925781 160.355469 293.519531 160.472656 C 293.117188 160.597656 292.441406 160.742188 292.011719 160.824219 C 291.574219 160.898438 290.78125 160.953125 290.230469 160.953125 C 289.683594 160.949219 288.738281 160.832031 288.113281 160.695312 C 287.503906 160.558594 286.839844 160.394531 286.621094 160.328125 C 286.410156 160.253906 285.957031 160.074219 285.621094 159.921875 C 285.277344 159.773438 284.570312 159.390625 284.046875 159.085938 C 283.523438 158.78125 282.714844 158.242188 282.253906 157.898438 C 281.792969 157.550781 280.78125 156.667969 280.011719 155.945312 C 278.992188 154.992188 278.351562 154.480469 277.710938 154.089844 C 277.21875 153.792969 276.488281 153.433594 276.082031 153.289062 C 275.675781 153.144531 274.976562 152.96875 274.527344 152.886719 C 274.070312 152.8125 273.371094 152.75 272.957031 152.746094 C 272.539062 152.730469 271.851562 152.78125 271.410156 152.847656 C 270.972656 152.921875 270.234375 153.101562 269.765625 153.273438 C 269.292969 153.445312 268.566406 153.78125 268.140625 154.023438 C 267.71875 154.273438 267.148438 154.671875 266.855469 154.910156 Z M 323.117188 132.464844 C 322.816406 132.785156 322.363281 133.382812 322.117188 133.789062 C 321.886719 134.199219 321.597656 134.824219 321.484375 135.183594 C 321.375 135.527344 321.25 136.132812 321.199219 136.511719 C 321.152344 136.902344 321.175781 137.621094 321.234375 138.128906 C 321.300781 138.632812 321.449219 139.292969 321.558594 139.59375 C 321.65625 139.902344 322 140.523438 322.296875 140.976562 C 322.621094 141.472656 323.054688 141.984375 323.363281 142.265625 C 323.652344 142.523438 324.25 142.941406 324.695312 143.1875 C 325.253906 143.492188 325.84375 143.714844 326.566406 143.867188 C 327.390625 144.046875 327.824219 144.0625 328.671875 143.957031 C 329.339844 143.871094 330.035156 143.703125 330.5625 143.484375 C 331.121094 143.253906 331.589844 143 331.976562 142.699219 C 332.285156 142.449219 332.773438 141.980469 333.035156 141.660156 C 333.300781 141.339844 333.636719 140.867188 333.789062 140.621094 C 333.933594 140.367188 334.164062 139.867188 334.296875 139.496094 C 334.425781 139.125 334.585938 138.476562 334.632812 138.046875 C 334.691406 137.625 334.667969 136.867188 334.609375 136.359375 C 334.542969 135.855469 334.398438 135.195312 334.289062 134.894531 C 334.179688 134.59375 333.863281 133.992188 333.578125 133.558594 C 333.292969 133.121094 332.871094 132.589844 332.640625 132.367188 C 332.398438 132.152344 331.925781 131.789062 331.582031 131.566406 C 331.238281 131.34375 330.632812 131.042969 330.246094 130.886719 C 329.859375 130.730469 329.179688 130.5625 328.738281 130.515625 C 328.304688 130.460938 327.535156 130.480469 327.03125 130.546875 C 326.53125 130.613281 325.773438 130.808594 325.359375 130.96875 C 324.9375 131.144531 324.382812 131.417969 324.144531 131.585938 C 323.894531 131.75 323.433594 132.148438 323.117188 132.464844 Z M 285.4375 174.585938 C 285.210938 174.792969 284.839844 175.210938 284.617188 175.515625 C 284.378906 175.820312 284.054688 176.355469 283.886719 176.703125 C 283.707031 177.054688 283.488281 177.804688 283.382812 178.371094 C 283.238281 179.136719 283.226562 179.652344 283.332031 180.441406 C 283.410156 181.023438 283.570312 181.738281 283.679688 182.027344 C 283.789062 182.304688 284.101562 182.882812 284.382812 183.308594 C 284.652344 183.726562 285.101562 184.277344 285.382812 184.542969 C 285.660156 184.808594 286.152344 185.183594 286.476562 185.378906 C 286.796875 185.582031 287.414062 185.863281 287.828125 186.003906 C 288.253906 186.144531 288.910156 186.292969 289.269531 186.328125 C 289.632812 186.351562 290.222656 186.363281 290.582031 186.34375 C 290.941406 186.320312 291.566406 186.195312 291.964844 186.085938 C 292.546875 185.929688 292.917969 185.75 293.710938 185.234375 C 294.570312 184.671875 294.785156 184.484375 295.253906 183.890625 C 295.554688 183.511719 295.9375 182.9375 296.097656 182.609375 C 296.261719 182.292969 296.503906 181.539062 296.636719 180.941406 C 296.804688 180.136719 296.832031 179.609375 296.757812 178.925781 C 296.703125 178.414062 296.519531 177.640625 296.355469 177.199219 C 296.132812 176.613281 295.90625 176.203125 295.496094 175.652344 C 295.15625 175.1875 294.675781 174.683594 294.265625 174.339844 C 293.871094 174.015625 293.234375 173.632812 292.734375 173.414062 C 292.265625 173.210938 291.539062 172.992188 291.132812 172.921875 C 290.722656 172.863281 290.0625 172.824219 289.667969 172.84375 C 289.269531 172.867188 288.613281 172.960938 288.203125 173.078125 C 287.742188 173.191406 287.148438 173.441406 286.644531 173.734375 C 286.191406 173.992188 285.644531 174.375 285.4375 174.585938 Z M 285.4375 174.585938 " fill-opacity="1" fill-rule="nonzero"/></g></g></g><g fill="#e8202c" fill-opacity="1"><g transform="translate(11.152933, 134.466445)"><g><path d="M 48.34375 -46.6875 L 48.34375 0 L 37.546875 0 L 37.546875 -19.140625 L 16.34375 -19.140625 L 16.34375 0 L 5.53125 0 L 5.53125 -46.6875 L 16.34375 -46.6875 L 16.34375 -28.28125 L 37.546875 -28.28125 L 37.546875 -46.6875 Z M 48.34375 -46.6875 "/></g></g></g><g fill="#e8202c" fill-opacity="1"><g transform="translate(61.836896, 134.466445)"><g><path d="M 28.140625 0.796875 C 23.296875 0.796875 18.925781 -0.242188 15.03125 -2.328125 C 11.144531 -4.421875 8.097656 -7.300781 5.890625 -10.96875 C 3.691406 -14.632812 2.59375 -18.757812 2.59375 -23.34375 C 2.59375 -27.914062 3.691406 -32.035156 5.890625 -35.703125 C 8.097656 -39.378906 11.144531 -42.257812 15.03125 -44.34375 C 18.925781 -46.4375 23.296875 -47.484375 28.140625 -47.484375 C 32.984375 -47.484375 37.335938 -46.4375 41.203125 -44.34375 C 45.078125 -42.257812 48.125 -39.378906 50.34375 -35.703125 C 52.570312 -32.035156 53.6875 -27.914062 53.6875 -23.34375 C 53.6875 -18.757812 52.570312 -14.632812 50.34375 -10.96875 C 48.125 -7.300781 45.078125 -4.421875 41.203125 -2.328125 C 37.335938 -0.242188 32.984375 0.796875 28.140625 0.796875 Z M 28.140625 -8.40625 C 30.898438 -8.40625 33.390625 -9.035156 35.609375 -10.296875 C 37.835938 -11.566406 39.582031 -13.332031 40.84375 -15.59375 C 42.113281 -17.863281 42.75 -20.445312 42.75 -23.34375 C 42.75 -26.226562 42.113281 -28.804688 40.84375 -31.078125 C 39.582031 -33.347656 37.835938 -35.113281 35.609375 -36.375 C 33.390625 -37.644531 30.898438 -38.28125 28.140625 -38.28125 C 25.378906 -38.28125 22.890625 -37.644531 20.671875 -36.375 C 18.453125 -35.113281 16.707031 -33.347656 15.4375 -31.078125 C 14.164062 -28.804688 13.53125 -26.226562 13.53125 -23.34375 C 13.53125 -20.445312 14.164062 -17.863281 15.4375 -15.59375 C 16.707031 -13.332031 18.453125 -11.566406 20.671875 -10.296875 C 22.890625 -9.035156 25.378906 -8.40625 28.140625 -8.40625 Z M 28.140625 -8.40625 "/></g></g></g><g fill="#e8202c" fill-opacity="1"><g transform="translate(114.921681, 134.466445)"><g><path d="M 15.203125 -37.875 L 0.265625 -37.875 L 0.265625 -46.6875 L 40.953125 -46.6875 L 40.953125 -37.875 L 26.015625 -37.875 L 26.015625 0 L 15.203125 0 Z M 15.203125 -37.875 "/></g></g></g><g fill="#001b42" fill-opacity="1"><g transform="translate(152.94275, 134.466445)"><g><path d="M 16.34375 -38.015625 L 16.34375 -25.671875 L 37.9375 -25.671875 L 37.9375 -17 L 16.34375 -17 L 16.34375 0 L 5.53125 0 L 5.53125 -46.6875 L 40.8125 -46.6875 L 40.8125 -38.015625 Z M 16.34375 -38.015625 "/></g></g></g><g fill="#e8202c" fill-opacity="1"><g transform="translate(192.367235, 134.466445)"><g><path d="M 5.53125 -46.6875 L 16.34375 -46.6875 L 16.34375 0 L 5.53125 0 Z M 5.53125 -46.6875 "/></g></g></g><g fill="#e8202c" fill-opacity="1"><g transform="translate(211.04019, 134.466445)"><g><path d="M 34.9375 0 L 23.671875 -16.203125 L 12.609375 0 L 0.203125 0 L 17.46875 -23.734375 L 1.0625 -46.6875 L 13.34375 -46.6875 L 24.078125 -31.546875 L 34.609375 -46.6875 L 46.28125 -46.6875 L 30.015625 -24.140625 L 47.421875 0 Z M 34.9375 0 "/></g></g></g><g fill="#001b42" fill-opacity="1"><g transform="translate(11.152933, 176.923164)"><g><path d="M 3.453125 -21.234375 L 5.703125 -21.234375 L 5.703125 0 L 3.453125 0 Z M 3.453125 -21.234375 "/></g></g></g><g fill="#001b42" fill-opacity="1"><g transform="translate(18.848297, 176.923164)"><g><path d="M 7.578125 -19.28125 L 0.125 -19.28125 L 0.125 -21.234375 L 17.28125 -21.234375 L 17.28125 -19.28125 L 9.828125 -19.28125 L 9.828125 0 L 7.578125 0 Z M 7.578125 -19.28125 "/></g></g></g><g fill="#001b42" fill-opacity="1"><g transform="translate(34.785757, 176.923164)"><g/></g></g><g fill="#001b42" fill-opacity="1"><g transform="translate(41.269038, 176.923164)"><g><path d="M 9.3125 0.1875 C 7.726562 0.1875 6.210938 -0.0625 4.765625 -0.5625 C 3.328125 -1.070312 2.210938 -1.742188 1.421875 -2.578125 L 2.3125 -4.3125 C 3.070312 -3.539062 4.085938 -2.914062 5.359375 -2.4375 C 6.640625 -1.96875 7.957031 -1.734375 9.3125 -1.734375 C 11.207031 -1.734375 12.628906 -2.082031 13.578125 -2.78125 C 14.535156 -3.476562 15.015625 -4.378906 15.015625 -5.484375 C 15.015625 -6.335938 14.753906 -7.015625 14.234375 -7.515625 C 13.722656 -8.023438 13.09375 -8.414062 12.34375 -8.6875 C 11.59375 -8.957031 10.550781 -9.253906 9.21875 -9.578125 C 7.625 -9.984375 6.347656 -10.375 5.390625 -10.75 C 4.441406 -11.125 3.628906 -11.695312 2.953125 -12.46875 C 2.273438 -13.238281 1.9375 -14.28125 1.9375 -15.59375 C 1.9375 -16.664062 2.21875 -17.640625 2.78125 -18.515625 C 3.351562 -19.390625 4.222656 -20.085938 5.390625 -20.609375 C 6.566406 -21.140625 8.023438 -21.40625 9.765625 -21.40625 C 10.972656 -21.40625 12.160156 -21.238281 13.328125 -20.90625 C 14.492188 -20.570312 15.5 -20.113281 16.34375 -19.53125 L 15.59375 -17.734375 C 14.695312 -18.328125 13.742188 -18.769531 12.734375 -19.0625 C 11.722656 -19.351562 10.734375 -19.5 9.765625 -19.5 C 7.898438 -19.5 6.5 -19.140625 5.5625 -18.421875 C 4.625 -17.703125 4.15625 -16.78125 4.15625 -15.65625 C 4.15625 -14.800781 4.410156 -14.113281 4.921875 -13.59375 C 5.441406 -13.082031 6.085938 -12.691406 6.859375 -12.421875 C 7.640625 -12.148438 8.691406 -11.851562 10.015625 -11.53125 C 11.566406 -11.144531 12.820312 -10.765625 13.78125 -10.390625 C 14.738281 -10.015625 15.550781 -9.445312 16.21875 -8.6875 C 16.882812 -7.925781 17.21875 -6.898438 17.21875 -5.609375 C 17.21875 -4.535156 16.929688 -3.554688 16.359375 -2.671875 C 15.785156 -1.796875 14.898438 -1.097656 13.703125 -0.578125 C 12.515625 -0.0664062 11.050781 0.1875 9.3125 0.1875 Z M 9.3125 0.1875 "/></g></g></g><g fill="#001b42" fill-opacity="1"><g transform="translate(58.448871, 176.923164)"><g><path d="M 12.734375 0.1875 C 10.628906 0.1875 8.722656 -0.28125 7.015625 -1.21875 C 5.304688 -2.164062 3.972656 -3.457031 3.015625 -5.09375 C 2.054688 -6.726562 1.578125 -8.566406 1.578125 -10.609375 C 1.578125 -12.648438 2.054688 -14.488281 3.015625 -16.125 C 3.972656 -17.769531 5.304688 -19.0625 7.015625 -20 C 8.722656 -20.9375 10.628906 -21.40625 12.734375 -21.40625 C 14.835938 -21.40625 16.734375 -20.941406 18.421875 -20.015625 C 20.109375 -19.085938 21.4375 -17.796875 22.40625 -16.140625 C 23.382812 -14.492188 23.875 -12.648438 23.875 -10.609375 C 23.875 -8.566406 23.382812 -6.722656 22.40625 -5.078125 C 21.4375 -3.429688 20.109375 -2.140625 18.421875 -1.203125 C 16.734375 -0.273438 14.835938 0.1875 12.734375 0.1875 Z M 12.734375 -1.8125 C 14.410156 -1.8125 15.925781 -2.191406 17.28125 -2.953125 C 18.632812 -3.710938 19.695312 -4.765625 20.46875 -6.109375 C 21.238281 -7.453125 21.625 -8.953125 21.625 -10.609375 C 21.625 -12.273438 21.238281 -13.78125 20.46875 -15.125 C 19.695312 -16.46875 18.632812 -17.515625 17.28125 -18.265625 C 15.925781 -19.023438 14.410156 -19.40625 12.734375 -19.40625 C 11.054688 -19.40625 9.535156 -19.023438 8.171875 -18.265625 C 6.804688 -17.515625 5.734375 -16.46875 4.953125 -15.125 C 4.179688 -13.78125 3.796875 -12.273438 3.796875 -10.609375 C 3.796875 -8.953125 4.179688 -7.453125 4.953125 -6.109375 C 5.734375 -4.765625 6.804688 -3.710938 8.171875 -2.953125 C 9.535156 -2.191406 11.054688 -1.8125 12.734375 -1.8125 Z M 12.734375 -1.8125 "/></g></g></g><g fill="#001b42" fill-opacity="1"><g transform="translate(82.416329, 176.923164)"><g><path d="M 3.453125 -21.234375 L 5.703125 -21.234375 L 5.703125 -1.9375 L 17.59375 -1.9375 L 17.59375 0 L 3.453125 0 Z M 3.453125 -21.234375 "/></g></g></g><g fill="#001b42" fill-opacity="1"><g transform="translate(98.808323, 176.923164)"><g><path d="M 12.015625 0.1875 C 9.265625 0.1875 7.117188 -0.597656 5.578125 -2.171875 C 4.046875 -3.753906 3.28125 -6.050781 3.28125 -9.0625 L 3.28125 -21.234375 L 5.515625 -21.234375 L 5.515625 -9.15625 C 5.515625 -6.6875 6.070312 -4.84375 7.1875 -3.625 C 8.300781 -2.414062 9.910156 -1.8125 12.015625 -1.8125 C 14.128906 -1.8125 15.742188 -2.414062 16.859375 -3.625 C 17.972656 -4.84375 18.53125 -6.6875 18.53125 -9.15625 L 18.53125 -21.234375 L 20.71875 -21.234375 L 20.71875 -9.0625 C 20.71875 -6.050781 19.953125 -3.753906 18.421875 -2.171875 C 16.898438 -0.597656 14.765625 0.1875 12.015625 0.1875 Z M 12.015625 0.1875 "/></g></g></g><g fill="#001b42" fill-opacity="1"><g transform="translate(121.351577, 176.923164)"><g><path d="M 7.578125 -19.28125 L 0.125 -19.28125 L 0.125 -21.234375 L 17.28125 -21.234375 L 17.28125 -19.28125 L 9.828125 -19.28125 L 9.828125 0 L 7.578125 0 Z M 7.578125 -19.28125 "/></g></g></g><g fill="#001b42" fill-opacity="1"><g transform="translate(137.289038, 176.923164)"><g><path d="M 3.453125 -21.234375 L 5.703125 -21.234375 L 5.703125 0 L 3.453125 0 Z M 3.453125 -21.234375 "/></g></g></g><g fill="#001b42" fill-opacity="1"><g transform="translate(144.984401, 176.923164)"><g><path d="M 12.734375 0.1875 C 10.628906 0.1875 8.722656 -0.28125 7.015625 -1.21875 C 5.304688 -2.164062 3.972656 -3.457031 3.015625 -5.09375 C 2.054688 -6.726562 1.578125 -8.566406 1.578125 -10.609375 C 1.578125 -12.648438 2.054688 -14.488281 3.015625 -16.125 C 3.972656 -17.769531 5.304688 -19.0625 7.015625 -20 C 8.722656 -20.9375 10.628906 -21.40625 12.734375 -21.40625 C 14.835938 -21.40625 16.734375 -20.941406 18.421875 -20.015625 C 20.109375 -19.085938 21.4375 -17.796875 22.40625 -16.140625 C 23.382812 -14.492188 23.875 -12.648438 23.875 -10.609375 C 23.875 -8.566406 23.382812 -6.722656 22.40625 -5.078125 C 21.4375 -3.429688 20.109375 -2.140625 18.421875 -1.203125 C 16.734375 -0.273438 14.835938 0.1875 12.734375 0.1875 Z M 12.734375 -1.8125 C 14.410156 -1.8125 15.925781 -2.191406 17.28125 -2.953125 C 18.632812 -3.710938 19.695312 -4.765625 20.46875 -6.109375 C 21.238281 -7.453125 21.625 -8.953125 21.625 -10.609375 C 21.625 -12.273438 21.238281 -13.78125 20.46875 -15.125 C 19.695312 -16.46875 18.632812 -17.515625 17.28125 -18.265625 C 15.925781 -19.023438 14.410156 -19.40625 12.734375 -19.40625 C 11.054688 -19.40625 9.535156 -19.023438 8.171875 -18.265625 C 6.804688 -17.515625 5.734375 -16.46875 4.953125 -15.125 C 4.179688 -13.78125 3.796875 -12.273438 3.796875 -10.609375 C 3.796875 -8.953125 4.179688 -7.453125 4.953125 -6.109375 C 5.734375 -4.765625 6.804688 -3.710938 8.171875 -2.953125 C 9.535156 -2.191406 11.054688 -1.8125 12.734375 -1.8125 Z M 12.734375 -1.8125 "/></g></g></g><g fill="#001b42" fill-opacity="1"><g transform="translate(168.951859, 176.923164)"><g><path d="M 21.203125 -21.234375 L 21.203125 0 L 19.34375 0 L 5.703125 -17.21875 L 5.703125 0 L 3.453125 0 L 3.453125 -21.234375 L 5.3125 -21.234375 L 18.984375 -4 L 18.984375 -21.234375 Z M 21.203125 -21.234375 "/></g></g></g><g fill="#001b42" fill-opacity="1"><g transform="translate(192.131456, 176.923164)"><g><path d="M 9.3125 0.1875 C 7.726562 0.1875 6.210938 -0.0625 4.765625 -0.5625 C 3.328125 -1.070312 2.210938 -1.742188 1.421875 -2.578125 L 2.3125 -4.3125 C 3.070312 -3.539062 4.085938 -2.914062 5.359375 -2.4375 C 6.640625 -1.96875 7.957031 -1.734375 9.3125 -1.734375 C 11.207031 -1.734375 12.628906 -2.082031 13.578125 -2.78125 C 14.535156 -3.476562 15.015625 -4.378906 15.015625 -5.484375 C 15.015625 -6.335938 14.753906 -7.015625 14.234375 -7.515625 C 13.722656 -8.023438 13.09375 -8.414062 12.34375 -8.6875 C 11.59375 -8.957031 10.550781 -9.253906 9.21875 -9.578125 C 7.625 -9.984375 6.347656 -10.375 5.390625 -10.75 C 4.441406 -11.125 3.628906 -11.695312 2.953125 -12.46875 C 2.273438 -13.238281 1.9375 -14.28125 1.9375 -15.59375 C 1.9375 -16.664062 2.21875 -17.640625 2.78125 -18.515625 C 3.351562 -19.390625 4.222656 -20.085938 5.390625 -20.609375 C 6.566406 -21.140625 8.023438 -21.40625 9.765625 -21.40625 C 10.972656 -21.40625 12.160156 -21.238281 13.328125 -20.90625 C 14.492188 -20.570312 15.5 -20.113281 16.34375 -19.53125 L 15.59375 -17.734375 C 14.695312 -18.328125 13.742188 -18.769531 12.734375 -19.0625 C 11.722656 -19.351562 10.734375 -19.5 9.765625 -19.5 C 7.898438 -19.5 6.5 -19.140625 5.5625 -18.421875 C 4.625 -17.703125 4.15625 -16.78125 4.15625 -15.65625 C 4.15625 -14.800781 4.410156 -14.113281 4.921875 -13.59375 C 5.441406 -13.082031 6.085938 -12.691406 6.859375 -12.421875 C 7.640625 -12.148438 8.691406 -11.851562 10.015625 -11.53125 C 11.566406 -11.144531 12.820312 -10.765625 13.78125 -10.390625 C 14.738281 -10.015625 15.550781 -9.445312 16.21875 -8.6875 C 16.882812 -7.925781 17.21875 -6.898438 17.21875 -5.609375 C 17.21875 -4.535156 16.929688 -3.554688 16.359375 -2.671875 C 15.785156 -1.796875 14.898438 -1.097656 13.703125 -0.578125 C 12.515625 -0.0664062 11.050781 0.1875 9.3125 0.1875 Z M 9.3125 0.1875 "/></g></g></g></svg>